<svg width="72" height="72" viewBox="0 0 72 72" fill="none" xmlns="http://www.w3.org/2000/svg">
<path d="M0 36C0 16.1178 16.1178 0 36 0C55.8823 0 72 16.1178 72 36C72 55.8823 55.8823 72 36 72C16.1178 72 0 55.8823 0 36Z" fill="white"/>
<path d="M48.0234 32.8359H51.8203V49.2891H48.0234V32.8359Z" fill="#B3CCFF"/>
<path d="M17.1465 49.2676H54.8534V52.0607H17.1465V49.2676Z" fill="#B3CCFF"/>
<path d="M53.7188 30.9375V32.8359H46.7578V30.9375H53.7188Z" fill="#E8F1FF"/>
<path d="M25.2422 30.9375V32.8359H18.2812V30.9375H25.2422Z" fill="#E8F1FF"/>
<path d="M39.7969 30.9375V32.8359H32.2031V30.9375H39.7969Z" fill="#E8F1FF"/>
<path d="M39.4916 46.4746V49.2677H32.5088V46.4746H39.4916Z" fill="#E8F1FF"/>
<path d="M25.5257 46.4746V49.2677H18.543V46.4746H25.5257Z" fill="#E8F1FF"/>
<path d="M56.25 52.0605V54.8537C56.2476 55.6239 55.6237 56.2478 54.8534 56.2502H17.1466C16.3763 56.2478 15.7524 55.6239 15.75 54.8537V52.0605H56.25Z" fill="#5676FF"/>
<path d="M56.25 24.8276V28.319H15.75V24.8276L36 15.75L56.25 24.8276Z" fill="#E8F1FF"/>
<path d="M54.8534 28.3184V31.1115H17.1465V28.3184H54.8534Z" fill="#B3CCFF"/>
<path d="M38.7932 22.7326C38.7932 24.275 37.5426 25.5257 36.0001 25.5257C34.4577 25.5257 33.207 24.275 33.207 22.7326C33.207 21.1901 34.4577 19.9395 36.0001 19.9395C37.5426 19.9395 38.7932 21.1901 38.7932 22.7326Z" fill="#FBBF24"/>
<path d="M34.1016 32.8359H37.8984V46.125H34.1016V32.8359Z" fill="#B3CCFF"/>
<path d="M20.1797 32.8359H23.9766V46.125H20.1797V32.8359Z" fill="#B3CCFF"/>
<path d="M56.2498 44.3803C56.2498 48.6224 52.8109 52.0613 48.5687 52.0613C44.3266 52.0613 40.8877 48.6224 40.8877 44.3803C40.8877 40.1381 44.3266 36.6992 48.5687 36.6992C52.8109 36.6992 56.2498 40.1381 56.2498 44.3803Z" fill="#85A8FF"/>
<path d="M54.1553 44.3792C54.1553 47.4645 51.6544 49.9654 48.5691 49.9654C45.4838 49.9654 42.9829 47.4645 42.9829 44.3792C42.9829 41.2939 45.4838 38.793 48.5691 38.793C51.6544 38.793 54.1553 41.2939 54.1553 44.3792Z" fill="#5676FF"/>
<path d="M49.2673 43.6808V42.2843C49.6529 42.2843 49.9655 42.5969 49.9655 42.9826H51.3621C51.3621 41.8257 50.4241 40.8877 49.2673 40.8877V40.1895H47.8707V40.8877C46.7138 40.8877 45.7759 41.8257 45.7759 42.9826C45.7759 44.1394 46.7138 45.0774 47.8707 45.0774V46.4739C47.4851 46.4739 47.1724 46.1613 47.1724 45.7757H45.7759C45.7759 46.9325 46.7138 47.8705 47.8707 47.8705V48.5688H49.2673V47.8705C50.4241 47.8705 51.3621 46.9325 51.3621 45.7757C51.3621 44.6188 50.4241 43.6808 49.2673 43.6808ZM47.1724 42.9826C47.1724 42.5969 47.4851 42.2843 47.8707 42.2843V43.6808C47.4851 43.6808 47.1724 43.3682 47.1724 42.9826ZM49.2673 46.4739V45.0774C49.6529 45.0774 49.9655 45.39 49.9655 45.7757C49.9655 46.1613 49.6529 46.4739 49.2673 46.4739Z" fill="white"/>
<path d="M17.1465 28.3184H54.8534V29.0166H17.1465V28.3184Z" fill="#5676FF"/>
<path d="M19.9395 32.8359H24.1291V33.5342H19.9395V32.8359Z" fill="#5676FF"/>
<path d="M33.9053 32.8359H38.0949V33.5342H33.9053V32.8359Z" fill="#5676FF"/>
<path d="M47.8706 32.8359H52.0603V33.5342H47.8706V32.8359Z" fill="#5676FF"/>
</svg>
