<svg width="72" height="72" viewBox="0 0 72 72" fill="none" xmlns="http://www.w3.org/2000/svg">
<path d="M0 36C0 16.1178 16.1178 0 36 0C55.8823 0 72 16.1178 72 36C72 55.8823 55.8823 72 36 72C16.1178 72 0 55.8823 0 36Z" fill="white"/>
<path d="M49.7447 56.25C51.0906 56.25 52.1816 55.1699 52.1816 53.8374V23.4642H51.0935C50.2592 23.4642 49.5827 22.7945 49.5827 21.9685V18.0196L48.4579 15.9667C48.1425 15.8236 47.8022 15.75 47.4486 15.75H26.5058C25.1599 15.75 24.0688 16.8301 24.0688 18.1626V53.8374C24.0688 55.1699 25.1599 56.25 26.5058 56.25H49.7447Z" fill="#E8F1FF"/>
<path d="M51.057 23.4648V53.838C51.057 55.1704 49.966 56.2506 48.6201 56.2506H53.8132C55.1591 56.2506 56.2501 55.1705 56.2501 53.838V24.4641C56.2501 24.116 56.1741 23.7757 56.0312 23.4648H51.057Z" fill="#E8F1FF"/>
<path d="M55.5362 22.7577L49.1717 16.4567C48.9634 16.2504 48.7211 16.0853 48.458 15.9668V21.9686C48.458 22.7946 49.1344 23.4643 49.9688 23.4643H56.031C55.9113 23.2037 55.7446 22.9639 55.5362 22.7577Z" fill="#5676FF"/>
<path d="M32.9541 45.8164L34.8282 43.961L38.7538 47.8474L36.8797 49.7028L32.9541 45.8164Z" fill="#85A8FF"/>
<path d="M44.7387 52.5978L39.1265 47.0415C38.8049 46.7231 38.2835 46.7231 37.9619 47.0415L36.0703 48.9143C35.7487 49.2326 35.7487 49.7489 36.0703 50.0672L41.6825 55.6235C42.5265 56.459 43.8948 56.459 44.7387 55.6235C45.5826 54.7879 45.5826 53.4333 44.7387 52.5978Z" fill="#5676FF"/>
<path d="M27.1091 49.4154C33.3826 49.4154 38.4682 44.3805 38.4682 38.1696C38.4682 31.9587 33.3826 26.9238 27.1091 26.9238C20.8356 26.9238 15.75 31.9587 15.75 38.1696C15.75 44.3805 20.8356 49.4154 27.1091 49.4154Z" fill="#B3CCFF"/>
<path d="M27.1089 46.9788C32.0229 46.9788 36.0065 43.035 36.0065 38.1701C36.0065 33.3051 32.0229 29.3613 27.1089 29.3613C22.195 29.3613 18.2114 33.3051 18.2114 38.1701C18.2114 43.035 22.195 46.9788 27.1089 46.9788Z" fill="#E8F1FF"/>
<path d="M29.014 42.2791C28.7902 42.2512 28.6218 42.0635 28.6209 41.8402L28.6122 39.8086L25.4768 39.8216L25.4855 41.8533C25.4864 42.0766 25.3198 42.2657 25.0961 42.2954C25.0961 42.2954 24.5172 44.2543 27.0634 44.2437C29.6096 44.2332 29.014 42.2791 29.014 42.2791Z" fill="#FECACA"/>
<path d="M31.7561 42.8734C31.0378 42.5603 29.6815 42.3623 29.0139 42.2793L29.0099 42.2842C28.0084 43.5245 26.105 43.5301 25.0961 42.2956C24.4292 42.3841 23.0747 42.5936 22.359 42.9126C21.6151 43.2444 21.1869 43.9693 21.1714 44.73C24.5275 47.7126 29.622 47.7278 32.9958 44.7754C33.0091 43.9334 32.5366 43.2136 31.7561 42.8734Z" fill="#5676FF"/>
<path d="M29.4915 33.4669C29.4915 32.9771 29.0904 32.5801 28.5958 32.5801H25.6159C24.4182 32.5801 23.4473 33.5413 23.4473 34.7271V36.325L24.188 36.8872H29.9793L30.72 35.6524V34.6533C30.72 34.1635 30.319 33.7665 29.8243 33.7665H29.7941C29.6269 33.7664 29.4915 33.6324 29.4915 33.4669Z" fill="#85A8FF"/>
<path d="M30.72 35.6519L29.299 35.5199C28.696 35.4639 28.0909 35.603 27.5744 35.9162C27.134 36.1832 26.6276 36.3245 26.1112 36.3245H23.4473V37.5985C23.4473 37.8564 23.6584 38.0653 23.9188 38.0653C23.9998 38.0653 24.0678 38.1271 24.0729 38.2072C24.1707 39.7695 25.4809 41.0068 27.0836 41.0068C28.6878 41.0068 29.9989 39.7673 30.0909 38.2029C30.0955 38.1253 30.1612 38.0653 30.2398 38.0653H30.2474C30.5123 38.0653 30.7265 37.8527 30.7248 37.5911C30.72 36.8882 30.72 35.6519 30.72 35.6519Z" fill="#FECACA"/>
<path d="M52.2448 32.2281H41.6002C41.2593 32.2281 40.9829 31.9545 40.9829 31.617C40.9829 31.2795 41.2593 31.0059 41.6002 31.0059H52.2447C52.5856 31.0059 52.862 31.2795 52.862 31.617C52.862 31.9545 52.5856 32.2281 52.2448 32.2281Z" fill="#5676FF"/>
<path d="M52.2448 35.9117H41.6002C41.2593 35.9117 40.9829 35.6381 40.9829 35.3006C40.9829 34.9631 41.2593 34.6895 41.6002 34.6895H52.2447C52.5856 34.6895 52.862 34.9631 52.862 35.3006C52.862 35.6381 52.5856 35.9117 52.2448 35.9117Z" fill="#5676FF"/>
<path d="M52.2448 39.5973H41.6002C41.2593 39.5973 40.9829 39.3237 40.9829 38.9861C40.9829 38.6486 41.2593 38.375 41.6002 38.375H52.2447C52.5856 38.375 52.862 38.6486 52.862 38.9861C52.862 39.3237 52.5856 39.5973 52.2448 39.5973Z" fill="#5676FF"/>
<path d="M46.9225 43.2809H41.6002C41.2593 43.2809 40.9829 43.0073 40.9829 42.6697C40.9829 42.3322 41.2593 42.0586 41.6002 42.0586H46.9225C47.2634 42.0586 47.5398 42.3322 47.5398 42.6697C47.5398 43.0073 47.2634 43.2809 46.9225 43.2809Z" fill="#5676FF"/>
<path d="M40.8895 23.4636H28.643C28.2507 23.4636 27.9326 23.1488 27.9326 22.7603V20.4181C27.9326 20.0297 28.2506 19.7148 28.643 19.7148H40.8896C41.2819 19.7148 41.6 20.0297 41.6 20.4181V22.7603C41.5999 23.1487 41.2819 23.4636 40.8895 23.4636Z" fill="#FBBF24"/>
</svg>
