<svg width="150" height="40" viewBox="0 0 150 40" fill="none" xmlns="http://www.w3.org/2000/svg">
<g clip-path="url(#clip0_6849_50524)">
<path d="M112.688 12.0446L108.396 16.5471C111.876 17.2123 114.999 19.2145 117.05 22.129L119.073 15.8412L124.171 0L112.688 12.0446Z" fill="#0000FF"/>
<path d="M115.462 27.0623C114.083 22.5295 109.745 19.6347 105.133 19.9673C104.548 20.0094 103.959 20.1014 103.371 20.25C97.9907 21.6172 94.737 27.0886 96.1055 32.4694C96.2225 32.9282 96.371 33.3712 96.5446 33.7972C96.6353 33.788 96.726 33.7722 96.8154 33.7656C101.127 33.454 105.199 35.965 106.837 39.9969C107.331 39.947 107.828 39.8602 108.324 39.7353C113.704 38.3668 116.958 32.8966 115.589 27.5159C115.55 27.3634 115.507 27.2109 115.462 27.061" fill="#0000FF"/>
<path d="M13.1909 30.5054C13.1909 32.3051 12.7597 33.667 11.8986 34.5912C11.0363 35.5167 9.85835 35.9795 8.36363 35.9795C7.04506 35.9795 6.00651 35.5995 5.24666 34.8397C4.4868 34.0785 4.10556 32.99 4.10556 31.5702V20.3184H0V31.9883C0 34.3966 0.665199 36.3028 1.9956 37.7095C3.32599 39.1161 5.09416 39.8195 7.29878 39.8195C9.96089 39.8195 11.9236 38.844 13.1909 36.8918V39.3252H17.2965V20.3184H13.1909V30.5054Z" fill="#0000FF"/>
<path d="M42.8407 19.8236C40.2049 19.8236 38.2658 20.8253 37.0248 22.8262C35.8587 20.824 34.0603 19.8236 31.627 19.8236C29.1936 19.8236 27.407 20.7491 26.191 22.5987V20.3179H22.0854V39.3247H26.191V28.6802C26.191 27.0593 26.5775 25.8169 27.3505 24.9546C28.1235 24.0935 29.1423 23.6623 30.411 23.6623C31.5507 23.6623 32.4315 24.0238 33.0533 24.7455C33.6738 25.4673 33.9841 26.4887 33.9841 27.8046V39.3234H38.0897V28.6789C38.0897 27.0317 38.4564 25.7841 39.1913 24.9335C39.9262 24.0843 40.9398 23.661 42.232 23.661C43.3731 23.661 44.271 24.0277 44.931 24.7639C45.5896 25.4988 45.9195 26.5124 45.9195 27.8046V39.3234H50.0251V27.5391C50.0251 25.182 49.3652 23.306 48.0479 21.9125C46.7294 20.519 44.9941 19.8223 42.8394 19.8223" fill="#0000FF"/>
<path d="M57.6292 28.2247C57.9079 26.7799 58.5533 25.6401 59.5682 24.804C60.5818 23.9679 61.8491 23.5499 63.3701 23.5499C64.7636 23.5499 65.9481 23.9561 66.9235 24.7659C67.899 25.577 68.5261 26.7299 68.8048 28.2247H57.6292ZM63.4069 19.8242C60.4411 19.8242 58.0341 20.7878 56.1844 22.7138C54.3084 24.6397 53.3711 27.0099 53.3711 29.8232C53.3711 32.6365 54.3216 35.1067 56.2225 37.0076C58.1484 38.8836 60.6436 39.8209 63.7119 39.8209C67.4113 39.8209 70.1864 38.4393 72.0374 35.6772L68.6536 33.7001C67.5388 35.271 65.9034 36.0572 63.75 36.0572C62.1528 36.0572 60.8158 35.6641 59.7391 34.8793C58.6611 34.0944 57.971 32.9915 57.6673 31.5717H72.7973C72.8985 30.938 72.9498 30.3688 72.9498 29.8614C72.9498 27.0744 72.0506 24.7041 70.2508 22.7519C68.4511 20.801 66.1702 19.8255 63.4082 19.8255" fill="#0000FF"/>
<path d="M88.4004 35.0101C87.5012 35.5293 86.4929 35.7896 85.3781 35.7896C83.7059 35.7896 82.2992 35.2191 81.1581 34.0793C80.042 32.9145 79.4859 31.4948 79.4859 29.8226C79.4859 28.1504 80.0433 26.7306 81.1581 25.5645C82.2992 24.4234 83.7046 23.8542 85.3781 23.8542C86.5192 23.8542 87.5262 24.1145 88.4004 24.6337C89.2746 25.1543 89.9267 25.8695 90.3579 26.7818L93.8929 24.7297C93.133 23.235 91.9919 22.0439 90.4722 21.1566C88.9512 20.2692 87.2659 19.8262 85.4162 19.8262C82.5516 19.8262 80.1577 20.7898 78.2318 22.7157C76.3308 24.6167 75.3804 26.9869 75.3804 29.8252C75.3804 32.6635 76.3308 34.9824 78.2318 36.9333C80.1577 38.8593 82.5516 39.8229 85.4162 39.8229C87.2409 39.8229 88.9197 39.3785 90.4525 38.4925C91.9854 37.6051 93.158 36.4022 93.9691 34.8812L90.4341 32.8659C89.9779 33.7783 89.2996 34.4947 88.4004 35.014" fill="#0000FF"/>
<path d="M123.469 23.5129V20.3197H119.363V39.3265H123.469V29.7468C123.469 27.7959 124.051 26.4011 125.217 25.565C126.408 24.7039 127.777 24.324 129.323 24.4239V19.9766C126.46 19.9766 124.507 21.1545 123.469 23.5116" fill="#0000FF"/>
<path d="M147.665 21.9342C146.334 20.5275 144.566 19.8242 142.361 19.8242C139.701 19.8242 137.737 20.7997 136.469 22.7506V20.3185H132.364V39.3253H136.469V29.137C136.469 27.3386 136.901 25.9766 137.762 25.0512C138.623 24.127 139.801 23.6642 141.297 23.6642C142.614 23.6642 143.654 24.0442 144.414 24.8053C145.173 25.5652 145.553 26.655 145.553 28.0748V39.3266H149.659V27.6567C149.659 25.2497 148.994 23.3421 147.663 21.9355" fill="#0000FF"/>
</g>
<defs>
<clipPath id="clip0_6849_50524">
<rect width="150" height="40" fill="white"/>
</clipPath>
</defs>
</svg>
