<svg width="72" height="72" viewBox="0 0 72 72" fill="none" xmlns="http://www.w3.org/2000/svg">
<path d="M0 36C0 16.1178 16.1178 0 36 0C55.8823 0 72 16.1178 72 36C72 55.8823 55.8823 72 36 72C16.1178 72 0 55.8823 0 36Z" fill="white"/>
<path d="M41.0047 51.8962C50.0122 51.8962 57.3141 44.5942 57.3141 35.5868C57.3141 26.5793 50.0122 19.2773 41.0047 19.2773C31.9973 19.2773 24.6953 26.5793 24.6953 35.5868C24.6953 44.5942 31.9973 51.8962 41.0047 51.8962Z" fill="#5676FF"/>
<path d="M25.4241 31.9408C25.5153 31.9408 25.6063 31.8497 25.6063 31.8497C25.6063 31.9408 25.6975 32.0319 25.6975 32.0319C25.6975 32.123 25.7886 32.123 25.6975 32.2141V32.3052V32.3963C25.7886 32.4875 25.6975 32.4875 25.6975 32.4875V32.5786C25.6975 32.5786 25.6975 32.5786 25.6975 32.6698C25.6975 32.7609 25.6975 32.7609 25.7886 32.852V32.9431C25.7886 33.0343 25.8797 33.1253 25.9708 33.0343C25.9708 32.9431 26.0619 32.8521 26.0619 32.7609C26.0619 32.5787 26.0619 32.3054 26.0619 32.1231C26.0619 32.0319 26.0619 32.0319 26.0619 31.9409C26.0619 31.8498 26.0619 31.7587 26.0619 31.6675C26.0619 31.5764 26.1531 31.4853 26.1531 31.3942C26.1531 31.3031 26.2442 31.212 26.3353 31.212C26.4263 31.212 26.4264 31.1209 26.5175 31.1209C26.6086 31.1209 26.6086 31.0297 26.6086 30.9387C26.6998 30.8475 26.6998 30.8475 26.7908 30.8475C26.7908 30.8475 26.7908 30.8475 26.882 30.8475C26.9731 30.7564 27.0642 30.7564 27.1553 30.6653V30.5742C27.2465 30.5742 27.2465 30.5742 27.2465 30.5742C27.3376 30.483 27.1553 30.483 27.1553 30.392C27.2465 30.392 27.2465 30.392 27.3375 30.392V30.3008V30.2097C27.4287 30.1185 27.4287 30.0275 27.3375 29.9363C27.4287 29.9363 27.5197 29.9363 27.5197 29.9363C27.6109 30.0275 27.7019 29.9363 27.7019 29.8452C27.7019 29.7541 27.7019 29.7541 27.7019 29.663L27.7931 29.7541C27.8842 29.663 27.8842 29.663 27.9753 29.5719C28.0664 29.4808 27.9753 29.3897 28.0664 29.3897H28.1575V29.2986C28.3397 29.2986 28.4309 29.2075 28.6131 29.2075C28.7042 29.2075 28.7042 29.1163 28.7042 29.1163C28.7042 29.0252 28.7042 28.9341 28.7954 28.843C28.8865 28.7518 28.9776 28.7518 28.9776 28.7518C28.9776 28.7518 29.0687 28.7518 29.0687 28.6607C29.1599 28.5695 29.2509 28.5695 29.3421 28.5695H29.4332C29.5243 28.4784 29.6154 28.4784 29.7065 28.3873C29.7977 28.2962 29.8887 28.2962 29.9799 28.2962C29.9799 28.2962 30.071 28.3873 30.071 28.4784C29.9799 28.4784 29.9799 28.4784 29.8888 28.4784C29.7977 28.4784 29.7977 28.5695 29.7066 28.5695C29.7066 28.5695 29.6155 28.6607 29.6155 28.7517C29.7066 28.7517 29.7977 28.7517 29.8888 28.6606C29.98 28.5695 30.071 28.5695 30.1622 28.4784C30.2533 28.3873 30.4355 28.3873 30.5267 28.2962C30.5267 28.2962 30.4355 28.2962 30.4355 28.2051C30.3444 28.3873 30.3444 28.2051 30.2533 28.2051C30.1622 28.2051 30.1622 28.1139 30.0711 28.0229C29.9801 27.9318 30.1623 27.8407 30.0711 27.7495C30.0711 27.7495 29.98 27.7495 29.8889 27.7495C29.9801 27.7495 29.9801 27.7495 30.0711 27.7495C30.1622 27.7495 30.1623 27.7495 30.2533 27.6584C30.2533 27.6584 30.3445 27.5672 30.3445 27.4762C30.2533 27.4762 30.1623 27.4762 30.0711 27.4762H29.98C29.8888 27.4762 29.7978 27.5673 29.7066 27.5673C29.6155 27.5673 29.6155 27.5673 29.5244 27.6585H29.4333C29.4333 27.5673 29.6155 27.5673 29.7066 27.4763C29.7978 27.3851 29.8888 27.3851 29.98 27.2941C30.0711 27.2029 30.0711 27.2029 30.1622 27.2029C30.4355 27.2029 30.8 27.2029 31.0733 27.2029C31.1645 27.2029 31.1645 27.2029 31.2555 27.2029C31.3467 27.2029 31.4377 27.1118 31.4377 27.0207L31.5289 26.9296C31.62 26.9296 31.7111 26.9296 31.8022 26.9296L31.9844 26.8384C31.9844 26.7473 32.0756 26.5651 32.0756 26.4739C31.9844 26.4739 31.9844 26.4739 31.8934 26.4739C31.8934 26.3828 31.8022 26.3828 31.8022 26.2917C31.8022 26.2917 31.8022 26.2917 31.8022 26.2006C31.7111 26.2006 31.62 26.1095 31.5289 26.1095C31.4377 26.0183 31.4377 25.9273 31.3467 25.8361H31.4378C31.4378 25.745 31.4378 25.6539 31.4378 25.6539C31.4378 25.5628 31.4378 25.5628 31.4378 25.4717V25.3806C31.3467 25.3806 31.4378 25.2894 31.4378 25.1984V25.1072C31.2556 25.1984 31.1645 25.3806 30.9823 25.4717C30.9823 25.4717 30.9823 25.4717 30.8911 25.3806C30.8 25.3806 30.8 25.4717 30.7089 25.4717C30.6179 25.4717 30.6178 25.4717 30.6178 25.4717C30.5267 25.3806 30.5267 25.2895 30.4356 25.1984C30.4356 25.1072 30.6178 25.0162 30.5267 24.8339C30.4356 24.8339 30.4356 24.8339 30.3445 24.8339C30.3445 24.7427 30.3445 24.7427 30.3445 24.6517C30.2534 24.5605 30.0712 24.5605 29.889 24.5605H29.7979H29.7067C29.6156 24.4694 29.6156 24.4694 29.5245 24.5605C29.5245 24.5605 29.5245 24.5605 29.4334 24.5605C29.4334 24.6517 29.4334 24.7427 29.3422 24.7427C29.2511 24.8339 29.2511 24.9249 29.2511 25.0161C29.1599 25.1072 29.0689 25.1072 28.9777 25.1983C28.9777 25.2894 28.9777 25.2894 29.0689 25.2894C29.16 25.3806 29.16 25.3806 29.0689 25.4716V25.5628C29.0689 25.6539 28.9777 25.745 28.8867 25.8361C28.7955 25.9273 28.7045 25.9273 28.6133 26.0183C28.5222 26.0183 28.4311 26.1095 28.34 26.1095C28.34 26.2006 28.34 26.2917 28.34 26.2917C28.34 26.3828 28.34 26.3828 28.34 26.4739C28.34 26.5649 28.34 26.565 28.34 26.6561C28.2489 26.6561 28.1578 26.7472 28.1578 26.8383C28.0667 26.8383 27.9756 26.8383 27.9756 26.9294C27.8845 26.8383 27.8845 26.7472 27.7934 26.6561C27.7934 26.6561 27.7934 26.6561 27.8845 26.5649C27.8845 26.4738 27.9757 26.2916 27.9757 26.2004C27.9757 26.2004 27.9757 26.2004 28.0668 26.2004C28.0668 26.1093 27.9757 26.1093 27.9757 26.0182C27.8845 26.0182 27.7935 26.0182 27.7935 26.0182C26.5179 27.7494 25.6067 29.6628 25.0601 31.8496C25.2418 31.7586 25.333 31.8497 25.4241 31.9408Z" fill="#E8F1FF"/>
<path d="M30.9821 47.7947C30.891 47.7035 30.891 47.7947 30.9821 47.7947C30.7999 47.7037 30.7999 47.6125 30.7999 47.5214V47.4303C30.7088 47.4303 30.6177 47.4303 30.6177 47.3393C30.6177 47.2482 30.5266 47.2482 30.5266 47.1571C30.6177 47.1571 30.6177 47.1571 30.7088 47.1571H30.7999C30.891 47.2481 31.0732 47.2481 31.1644 47.2481C31.2555 47.2481 31.3466 47.1571 31.4377 47.0659C31.4377 46.9749 31.5289 46.9749 31.5289 46.8837L31.62 46.7927C31.62 46.7016 31.7111 46.6105 31.7111 46.4282C31.7111 46.3371 31.8023 46.246 31.8023 46.1548H31.8934C31.8934 46.0638 31.9846 45.9726 31.9846 45.8815H32.0757C32.0757 45.7904 32.0757 45.6993 32.1669 45.6081V45.517C32.0757 45.4259 32.1669 45.3348 32.0757 45.2437C32.0757 45.0615 32.0757 44.9703 32.1669 44.8792L32.258 44.788C32.3491 44.6969 32.3491 44.6969 32.4402 44.6969C32.5313 44.6969 32.5313 44.6969 32.6224 44.6058L32.7135 44.5146C32.8047 44.5146 32.8957 44.5146 32.9869 44.4235C32.9869 44.4235 33.078 44.4235 33.078 44.3323C33.1692 44.2412 33.1692 44.2412 33.2602 44.1501C33.2602 44.059 33.1691 44.059 33.2602 43.9679C33.3514 43.8768 33.3514 43.7857 33.3514 43.6946C33.3514 43.6946 33.3514 43.6034 33.4425 43.6034C33.5337 43.5123 33.5337 43.5123 33.4425 43.4212C33.4425 43.4212 33.5337 43.4212 33.5337 43.3301C33.5337 43.239 33.6248 43.0568 33.6248 42.9656C33.6248 42.8745 33.6248 42.8745 33.6248 42.7834C33.6248 42.7834 33.6248 42.6923 33.6248 42.6012V42.5101C33.6248 42.3279 33.6248 42.1456 33.6248 41.9634C33.7159 41.9634 33.7159 41.9634 33.807 41.9634C33.8981 41.7812 33.9892 41.69 33.9892 41.5078C33.9892 41.5078 33.9892 41.4167 34.0803 41.4167C34.1715 41.4167 34.1715 41.3256 34.2625 41.2345V41.1434C34.3537 41.0522 34.3537 41.0522 34.3537 40.87V40.7789C34.4448 40.7789 34.3537 40.6877 34.3537 40.5967C34.3537 40.5056 34.3537 40.3233 34.2625 40.2322C34.2625 40.141 34.1714 39.9588 33.9892 40.05C33.8981 40.05 33.8981 39.9588 33.807 39.9588C33.7159 39.8677 33.7159 39.7766 33.6248 39.7766C33.5337 39.7766 33.5337 39.6855 33.4426 39.5944L33.3515 39.5033C33.2603 39.5033 33.0781 39.5033 32.987 39.4122C32.8958 39.4122 32.8958 39.4122 32.8048 39.321H32.7136C32.6225 39.4122 32.6225 39.321 32.5314 39.321C32.5314 39.321 32.5314 39.321 32.6226 39.2299C32.5314 39.1387 32.5314 39.0477 32.4404 39.0477C32.3492 38.9565 32.2582 38.9565 32.167 38.9565C32.0759 38.9565 31.9848 38.9565 31.8937 38.9565C31.8937 39.0477 31.8937 39.0477 31.8025 39.0477C31.8025 38.9565 31.8025 38.8655 31.8025 38.8655H31.5292C31.5292 38.8655 31.4381 38.8655 31.4381 38.7743H31.3469C31.3469 38.6832 31.4381 38.7743 31.4381 38.6832C31.4381 38.6832 31.4381 38.592 31.3469 38.592C31.3469 38.5009 31.4381 38.4098 31.4381 38.3187C31.3469 38.3187 31.2559 38.3187 31.2559 38.2276C31.2559 38.1364 31.1647 37.9542 31.1647 37.8631H31.0736C31.0736 37.7719 30.9824 37.6809 30.8914 37.6809L30.8002 37.5897C30.618 37.4986 30.5269 37.4075 30.3447 37.4986C30.2536 37.4986 30.1625 37.4986 30.0714 37.4986H29.9802C29.8891 37.4074 29.798 37.3164 29.7069 37.2252C29.7069 37.1341 29.6157 37.1341 29.6157 37.043C29.6157 36.9519 29.5246 36.9519 29.4335 36.8608C29.3424 36.8608 29.3424 36.8608 29.2513 36.8608C29.2513 36.7697 29.2513 36.7697 29.3425 36.6786C29.2513 36.5875 29.1603 36.4964 28.978 36.4964C28.978 36.3142 28.7958 36.2231 28.7046 36.4053C28.7046 36.4053 28.7046 36.4964 28.6135 36.4964C28.5224 36.4964 28.3402 36.5876 28.249 36.4053C28.1579 36.4964 27.9757 36.4053 27.8845 36.4964V36.4053C27.8845 36.2231 27.7023 36.132 27.52 36.2231C27.4289 36.3142 27.3378 36.3142 27.2467 36.4053V36.4964C27.3378 36.5876 27.2467 36.6786 27.2467 36.7698C27.1556 36.7698 27.1556 36.7698 27.0645 36.6786C27.0645 36.5875 27.0645 36.5875 27.0645 36.4964C27.1556 36.4053 27.1556 36.3142 27.0645 36.132C27.1556 36.132 27.1556 36.0408 27.2467 36.0408V35.9497H27.0645V36.0408C26.9734 36.0408 26.9734 36.132 26.8823 36.132C26.7912 36.132 26.609 36.2231 26.5178 36.2231L26.4267 36.3142C26.4267 36.4054 26.3355 36.4054 26.3355 36.4964V36.5876C26.2444 36.6787 26.2444 36.6787 26.1533 36.7698V36.8609C26.1533 36.7698 26.1533 36.7698 26.1533 36.7698H26.0622C26.0622 36.6786 26.0622 36.5876 25.971 36.5876C25.8799 36.5876 25.8799 36.5876 25.7888 36.4964C25.7888 36.4964 25.7888 36.4964 25.6977 36.4964C25.6066 36.5876 25.5155 36.6786 25.3332 36.6786C25.2421 36.6786 25.151 36.6786 25.151 36.5875C25.151 36.5875 25.151 36.4964 25.0599 36.4964C25.0599 36.4964 25.0599 36.4964 24.9687 36.4964C24.9687 36.4052 24.8776 36.4052 24.8776 36.3142V36.223C24.8776 36.0408 24.9687 35.8585 24.9687 35.6763C25.0599 35.5852 25.0599 35.403 25.0599 35.3118C24.9687 35.3118 24.9687 35.3118 24.8777 35.3118V35.2207H24.5132C24.5132 35.3118 24.5132 35.494 24.5132 35.5852C24.5132 35.8585 24.5132 36.0407 24.5132 36.3141C24.5132 36.4052 24.6043 36.4052 24.5132 36.4052C24.5132 36.4964 24.5132 36.4964 24.5132 36.5874C24.6043 36.5874 24.6043 36.5874 24.6043 36.4963C24.6955 36.6785 24.8777 36.7696 24.8777 36.9518H25.151C25.151 37.043 25.151 37.043 25.151 37.043H25.2422V37.1341C25.3333 37.1341 25.3333 37.043 25.3333 37.043C25.4244 36.9518 25.2422 36.9518 25.3333 36.8608C25.4244 36.8608 25.4244 36.8608 25.4244 36.7696C25.4244 36.6785 25.5156 36.6785 25.6066 36.7696C25.6066 36.7696 25.6978 36.8608 25.7888 36.8608C25.6977 36.9519 25.6977 37.043 25.7888 37.1341C25.88 37.2252 25.971 37.3163 25.88 37.4986C25.88 37.5897 25.88 37.6808 25.88 37.7719C25.88 37.8631 25.88 37.8631 25.7888 37.9541C25.88 38.0453 25.88 38.0453 25.7888 38.0453C25.6977 38.1364 25.6977 38.2275 25.6977 38.3186C25.6977 38.3186 25.6066 38.3186 25.5155 38.3186C25.5155 38.4098 25.5155 38.4098 25.5155 38.5008C25.5155 38.592 25.5155 38.683 25.4244 38.683C25.2422 38.683 25.2422 38.8652 25.2422 38.8652C25.2422 38.8652 25.2422 38.9564 25.151 38.9564C25.0599 39.1386 25.0599 39.2297 25.0599 39.4119C25.151 39.4119 25.151 39.4119 25.2421 39.4119C25.2421 39.5941 25.0599 39.6852 24.9687 39.7764V39.8675C24.9687 40.0497 25.0599 40.1409 25.0599 40.232L25.151 40.3232C25.2422 40.3232 25.2422 40.4143 25.2422 40.4143C25.2422 40.5054 25.2422 40.5054 25.3333 40.5965C25.5155 40.7787 25.5155 40.961 25.6066 41.2343C25.6066 41.2343 25.6066 41.2343 25.6066 41.3255C25.6978 41.4166 25.6978 41.5077 25.7888 41.5988C25.88 41.69 25.88 41.8722 25.971 41.9633L26.0622 42.0544C26.0622 42.1456 26.1533 42.2366 26.1533 42.3278C26.3355 42.51 26.5178 42.6923 26.7 42.7833C26.8822 42.8745 26.9734 42.8745 27.0645 43.0567C27.1556 43.1478 27.1556 43.1478 27.3378 43.2389C27.3378 43.33 27.3378 43.4211 27.3378 43.4211C27.429 43.5122 27.3378 43.6033 27.429 43.7856V43.8767C27.5201 44.0589 27.5201 44.2412 27.429 44.3322V44.4234C27.5201 44.5145 27.429 44.6056 27.5201 44.6967C27.5201 44.7879 27.5201 44.7879 27.5201 44.8789C27.429 44.9701 27.429 45.0611 27.5201 45.1523V45.2434C28.3402 46.2456 29.1602 47.248 30.1624 48.0679C30.2535 48.0679 30.3446 48.0679 30.4357 47.9768C30.891 47.9768 30.891 47.8858 30.9821 47.7947Z" fill="#E8F1FF"/>
<path d="M33.0777 21.5544C32.9865 21.5544 32.9865 21.5544 32.8955 21.4633C32.8043 21.5544 32.9866 21.5544 32.8955 21.6455C32.9866 21.6455 32.9866 21.6455 33.0777 21.6455C33.0777 21.6455 33.0777 21.6455 33.1688 21.6455C33.1688 21.6455 33.1688 21.6455 33.26 21.6455H33.3511C33.3511 21.6455 33.3511 21.6455 33.4423 21.6455H33.5334C33.7156 21.6455 33.8979 21.7366 34.0801 21.7366C34.1712 21.8278 34.1712 21.9188 34.2623 21.9188C34.1711 22.01 34.1711 22.01 34.2623 22.101C34.3534 22.1922 34.2623 22.3744 34.1711 22.3744C34.08 22.3744 34.08 22.4655 34.08 22.5566C34.1711 22.5566 34.2622 22.5566 34.2622 22.4654C34.2622 22.3743 34.3533 22.3743 34.3533 22.4654C34.3533 22.4654 34.4445 22.5566 34.4445 22.6476C34.5356 22.6476 34.5356 22.6476 34.6267 22.6476C34.4445 22.7388 34.3533 22.6476 34.2622 22.7388V22.8299C34.4444 22.8299 34.4444 22.8299 34.5355 22.8299C34.4444 22.8299 34.4444 22.8299 34.4444 22.8299V22.9211C34.3533 23.0122 34.2622 23.1033 34.1711 23.1033V23.0121H34.0799C34.0799 23.0121 34.0799 23.0121 34.0799 23.1033C34.0799 23.1033 34.0799 23.1033 34.0799 23.1944C33.8977 23.1944 33.8066 23.2855 33.7154 23.3766C33.7154 23.4677 33.6243 23.5588 33.6243 23.5588V23.6499C33.6243 23.7411 33.7154 23.7411 33.7154 23.8321C33.7154 23.8321 33.6243 23.8321 33.6243 23.9233V24.0144C33.7154 24.1056 33.6243 24.1966 33.7154 24.2878C33.7154 24.47 33.8066 24.5611 33.8066 24.7433C33.8977 24.7433 33.9888 24.7433 34.0799 24.6522C34.0799 24.7433 34.0799 24.7433 34.1711 24.7433L34.2622 24.8345C34.3533 24.8345 34.3533 24.9256 34.4444 24.8345C34.4444 24.7433 34.5355 24.6523 34.6266 24.5611C34.7177 24.47 34.8088 24.3789 34.8088 24.2878C34.8088 24.2878 34.8088 24.2878 34.8088 24.1966C34.8999 24.1966 34.991 24.1966 35.0821 24.1055H35.1733L35.2644 24.0143C35.2644 24.0143 35.2644 23.9232 35.1733 23.9232C35.2644 23.9232 35.2644 23.9232 35.2644 23.8321C35.2644 23.8321 35.3556 23.8321 35.3556 23.7409C35.3556 23.6498 35.4467 23.6498 35.4467 23.6498C35.5379 23.6498 35.6289 23.6498 35.6289 23.5586C35.6289 23.4675 35.7201 23.4675 35.7201 23.5586C35.8112 23.6498 35.8112 23.6498 35.9023 23.5586C35.9934 23.4675 35.9934 23.5586 36.0845 23.4675H36.1756C36.2667 23.3763 36.3578 23.3763 36.4489 23.2853C36.5401 23.1941 36.6311 23.1941 36.7223 23.1941V23.103C36.7223 23.103 36.7223 23.103 36.7223 23.0119C36.8134 23.103 36.9045 23.103 36.9956 23.0119H37.0868C37.269 23.0119 37.4513 23.0119 37.5423 22.9207C37.6335 22.8296 37.8157 22.8296 37.9068 22.7385V22.6474C37.8157 22.6474 37.6335 22.6474 37.5423 22.5562C37.6335 22.5562 37.6335 22.5562 37.7245 22.5562V22.4651C37.8157 22.4651 37.8157 22.4651 37.9067 22.4651V22.5562C37.9979 22.5562 37.9979 22.5562 38.0889 22.6474V22.5562C38.1801 22.5562 38.1801 22.5562 38.1801 22.6474V22.5562C38.1801 22.4651 38.0889 22.374 37.9979 22.374C37.9067 22.374 37.9067 22.374 37.8157 22.374C37.8157 22.2829 37.7245 22.2829 37.7245 22.1918C37.8157 22.1918 37.8157 22.1007 37.9067 22.1007C37.9979 22.0095 37.9979 22.0095 37.9979 22.1007C37.9979 22.1918 38.089 22.1918 38.1801 22.1918C38.2711 22.1918 38.3623 22.1007 38.3623 22.1007V22.0095C38.4534 22.0095 38.4534 22.0095 38.5445 22.0095V21.9184H38.4533C38.5445 21.9184 38.5445 21.9184 38.6355 21.9184C38.6355 21.8273 38.6355 21.7362 38.5444 21.7362C38.4532 21.7362 38.4532 21.7362 38.3622 21.7362C38.3622 21.7362 38.3622 21.7362 38.4533 21.7362C38.5445 21.7362 38.6355 21.7362 38.6355 21.6451C38.7267 21.6451 38.7267 21.5539 38.7267 21.5539C38.6355 21.5539 38.5445 21.5539 38.5445 21.4628C38.6356 21.4628 38.6356 21.3716 38.7267 21.3716L38.8178 21.2805C38.9089 21.2805 38.9089 21.2805 38.9089 21.1893C39.0001 21.0982 39.0001 21.0982 39.0911 21.0071C39.0911 21.0071 39.0911 21.0983 39.1823 21.0071V20.916C39.3645 20.916 39.5468 20.916 39.729 20.8249C39.6378 20.7337 39.6378 20.7337 39.5468 20.7337C39.4556 20.8249 39.3646 20.7337 39.2734 20.8249H39.1823C39.0911 20.916 39.0001 20.8249 38.9089 20.8249C38.8178 20.916 38.8178 20.916 38.7267 20.916V20.8249C38.6356 20.8249 38.6356 20.8249 38.5445 20.8249V20.7337C38.4534 20.6426 38.2712 20.6426 38.089 20.6426C37.7245 20.6426 37.4512 20.6426 37.0868 20.6426C36.9956 20.6426 36.8134 20.6426 36.7223 20.7337C36.6311 20.7337 36.5401 20.6426 36.4489 20.6426C36.3578 20.7337 36.2667 20.6426 36.2667 20.7337C36.1756 20.7337 36.2667 20.8249 36.1756 20.8249C36.1756 20.916 36.0845 20.916 35.9934 20.916C35.9023 20.916 35.8112 20.8249 35.7201 20.8249C35.6289 20.8249 35.5379 20.8249 35.4467 20.8249C35.4467 20.916 35.4467 20.916 35.4467 20.916H35.3556C35.2644 20.8249 35.1734 20.8249 35.0822 20.916H34.9911C34.8999 20.8249 34.7177 20.916 34.6266 20.8249H34.5355C34.4443 20.916 34.4443 20.916 34.3533 20.916C34.2621 20.916 34.1711 20.916 34.0799 21.0071H33.9888C33.8976 20.916 33.8976 20.916 33.8066 21.0071C33.8066 21.0071 33.8066 21.0071 33.7154 21.0071C33.6243 21.0071 33.5332 21.0071 33.4421 21.0071C33.4421 21.0071 33.3509 21.0071 33.3509 21.0983V21.1894C33.3509 21.1894 33.3509 21.2806 33.2598 21.2806C33.1687 21.2806 33.0776 21.3717 32.8953 21.3717C32.8042 21.3717 32.8042 21.3717 32.7131 21.3717C32.622 21.4629 32.4398 21.5539 32.3486 21.5539C32.9865 21.4634 32.9865 21.4634 33.0777 21.5544Z" fill="#E8F1FF"/>
<path d="M51.5738 23.1944C51.4827 23.1944 51.4827 23.1944 51.3916 23.2855C51.3916 23.2855 51.3916 23.2855 51.3005 23.2855C51.3916 23.1944 51.4828 23.1944 51.5738 23.1944C51.2094 22.921 50.936 22.6477 50.6627 22.4655C50.5715 22.4655 50.5715 22.4655 50.4805 22.3743C50.4805 22.3743 50.3893 22.3743 50.2983 22.2832H50.2071C50.116 22.3743 50.116 22.2832 50.0249 22.3743C50.0249 22.4655 50.0249 22.4655 50.0249 22.5565C50.0249 22.5565 49.9338 22.6477 49.8427 22.5565C49.7516 22.6477 49.6605 22.6477 49.5694 22.5565H49.4782C49.4782 22.6477 49.3871 22.5565 49.3871 22.6477C49.3871 22.6477 49.3871 22.6477 49.296 22.6477C49.296 22.6477 49.296 22.6477 49.2048 22.6477C49.0226 22.6477 48.9315 22.6477 48.7493 22.7388C48.6581 22.7388 48.6581 22.7388 48.6581 22.83C48.6581 22.83 48.6581 22.9211 48.6581 23.0122C48.567 23.0122 48.567 23.1033 48.4759 23.1033C48.3849 23.1033 48.2937 23.1033 48.2937 23.1033C48.2026 23.1033 48.2026 23.1033 48.1115 23.1033C48.0204 23.1033 48.0204 23.1033 47.9293 23.1033C48.0205 23.1945 48.0205 23.1945 48.0205 23.1945L48.1116 23.2856C48.0205 23.2856 48.0205 23.2856 47.9294 23.2856C47.7472 23.2856 47.7472 23.2856 47.7472 23.4678H47.6561C47.4739 23.4678 47.4739 23.4678 47.3827 23.2856C47.2916 23.2856 47.2916 23.2856 47.2005 23.3767C47.2005 23.4679 47.2005 23.4679 47.2917 23.4679C47.3828 23.4679 47.4739 23.559 47.4739 23.559C47.3827 23.6502 47.3827 23.6502 47.4739 23.7412C47.4739 23.7412 47.4739 23.7412 47.565 23.8324C47.565 23.9235 47.6562 23.9235 47.6562 23.8324C47.7473 23.7412 47.8384 23.7412 47.9295 23.8324C47.8384 23.8324 47.8384 23.9235 47.7473 23.9235C47.6562 23.9235 47.6562 24.0147 47.6562 24.0147H47.7473C47.7473 24.1058 47.7473 24.1969 47.6562 24.1969C47.565 24.1969 47.565 24.288 47.474 24.288C47.3828 24.3791 47.2918 24.3791 47.2006 24.288C47.3828 24.3791 47.2918 24.1969 47.3828 24.1058C47.474 24.0147 47.3828 23.9236 47.474 23.8325C47.474 23.8325 47.474 23.8325 47.3828 23.8325C47.2917 23.8325 47.2006 23.8325 47.2006 23.6503V23.5591L47.1095 23.468C47.1095 23.3768 47.0183 23.2858 46.9273 23.2858C46.9273 23.1946 46.9273 23.1036 47.0184 23.1036C46.8362 23.0124 46.6539 23.0124 46.4717 23.0124C46.4717 23.1036 46.4717 23.2858 46.3806 23.3769L46.4717 23.4681C46.4717 23.5592 46.4717 23.5592 46.4717 23.6503H46.6539V23.7414C46.7451 23.7414 46.7451 23.7414 46.8361 23.7414C46.8361 23.8325 46.8361 23.8325 46.8361 23.9236C46.745 23.9236 46.6539 23.8325 46.6539 23.8325C46.5628 23.8325 46.4717 23.7413 46.3806 23.7413C46.2894 23.6502 46.1984 23.6502 46.0161 23.6502C45.925 23.6502 45.925 23.6502 45.8339 23.6502C45.7428 23.6502 45.7428 23.6502 45.6517 23.559C45.6517 23.559 45.6517 23.6502 45.5606 23.6502C45.6517 23.6502 45.6517 23.7413 45.5606 23.7413C45.4694 23.8325 45.4694 23.8325 45.3784 23.7413C45.2872 23.6502 45.1962 23.6502 45.105 23.7413H45.0139C44.9227 23.6502 44.9227 23.7413 44.9227 23.7413C44.9227 23.7413 44.8316 23.7413 44.8316 23.8325C44.7404 23.7413 44.7404 23.7413 44.6494 23.8325C44.6494 23.7413 44.6494 23.7413 44.6494 23.6503C44.5582 23.7414 44.4672 23.7414 44.376 23.7414H44.2849C44.1938 23.8325 44.1938 23.8325 44.1027 23.8325C44.0116 23.8325 44.0116 23.9237 43.9205 23.9237C43.9205 23.9237 43.9205 24.0148 44.0116 24.0148C43.9205 24.0148 43.8294 24.0148 43.7383 24.0148C43.6472 24.0148 43.6472 23.9237 43.6472 23.8326C43.7383 23.8326 43.7383 23.8326 43.7383 23.6504H43.465V23.9238H43.5561C43.5561 24.0149 43.5561 24.0149 43.5561 24.106C43.465 24.106 43.465 24.106 43.3739 24.0148H43.2828L43.1916 24.106C43.1005 24.106 43.0094 24.106 43.0094 24.1971L43.1006 24.2883C42.9184 24.3794 42.7361 24.2883 42.645 24.1971C42.645 24.2883 42.645 24.3793 42.8272 24.3793V24.4705C42.7361 24.4705 42.5539 24.4705 42.5539 24.3793C42.4627 24.3793 42.3717 24.3793 42.3717 24.2882C42.3717 24.197 42.2805 24.197 42.3717 24.106C42.3717 24.0148 42.2805 24.0148 42.1895 24.0148C42.0983 24.0148 42.0073 23.9237 41.9161 23.8326H42.0073C42.0984 23.9238 42.2806 23.9238 42.3718 23.9238C42.4629 24.0149 42.4629 24.0149 42.554 24.0149C42.6451 24.0149 42.7362 24.0149 42.8273 24.0149C42.9184 24.0149 43.1006 24.0149 43.1006 23.8327C43.0095 23.7416 42.9184 23.5594 42.7362 23.5594C42.645 23.5594 42.554 23.4682 42.4628 23.4682C42.3717 23.4682 42.1895 23.3771 42.0983 23.3771C42.0072 23.2859 41.9161 23.2859 41.825 23.2859C41.7338 23.2859 41.7338 23.1948 41.6428 23.1948C41.5516 23.2859 41.4606 23.2859 41.3694 23.2859C41.3694 23.1948 41.3694 23.1948 41.3694 23.1037C41.2783 23.1037 41.1872 23.1037 41.0961 23.1949C41.0961 23.1037 41.0961 23.1037 41.0961 23.1037C41.005 23.1037 41.005 23.1949 40.9139 23.1949C40.8228 23.1037 40.8228 23.1037 40.7317 23.1949C40.7317 23.1949 40.7317 23.1037 40.7317 23.0127C40.6406 23.0127 40.6406 23.0127 40.5495 23.1038V23.195L40.4584 23.1038C40.3672 23.1038 40.2762 23.195 40.185 23.195C40.0939 23.2861 40.0939 23.2861 40.0028 23.195C40.0028 23.195 40.0028 23.195 39.9117 23.1038C39.9117 23.195 39.9117 23.195 39.9117 23.286C39.8205 23.286 39.7295 23.3772 39.7295 23.4682C39.7295 23.4682 39.6383 23.4682 39.6383 23.3771C39.5472 23.4682 39.5472 23.4682 39.4561 23.5593V23.6504C39.2739 23.6504 39.0916 23.9238 39.0006 24.1971C38.8184 24.2883 38.7272 24.3793 38.6361 24.5616C38.545 24.5616 38.3628 24.6527 38.2716 24.7438C38.1805 24.7438 38.0894 24.8349 37.9983 24.8349C37.9983 24.9261 37.9983 25.0171 37.9071 25.1083C37.9071 25.1994 37.9983 25.1994 37.9983 25.2905H38.0894C38.0894 25.3816 37.9983 25.3816 38.0894 25.4727C38.0894 25.4727 38.0894 25.4727 38.0894 25.5638V25.655C38.1806 25.655 38.1806 25.655 38.1806 25.7461C38.2717 25.8373 38.4539 25.7461 38.4539 25.7461C38.545 25.655 38.6361 25.5639 38.7272 25.655C38.7272 25.655 38.7272 25.5638 38.7272 25.4728C38.7272 25.5639 38.8184 25.5639 38.8184 25.655C38.9095 25.8372 39.0006 25.9283 39.0006 26.1105C39.0006 26.2017 39.0917 26.2927 39.0917 26.3839V26.475C39.1829 26.475 39.1829 26.475 39.2739 26.475C39.3651 26.3839 39.4561 26.3839 39.5473 26.3839C39.6384 26.3839 39.7295 26.2927 39.7295 26.2017C39.7295 26.1105 39.7295 25.9283 39.7295 25.8372C39.9117 25.746 40.0028 25.746 40.094 25.5638C40.0028 25.4727 39.9118 25.4727 39.8206 25.3816L39.7295 25.2905C39.7295 25.1993 39.7295 25.1083 39.7295 25.0171H39.8206C39.9118 24.926 40.0028 24.8349 40.1851 24.7438L40.2762 24.6527C40.2762 24.5615 40.3674 24.4705 40.3674 24.3793C40.5496 24.1971 40.7319 24.2882 40.9141 24.4705L40.8229 24.5616C40.7318 24.5616 40.7318 24.6527 40.6407 24.7438L40.5496 24.8349C40.5496 24.9261 40.4584 24.9261 40.4584 24.9261C40.3673 24.9261 40.3673 25.0172 40.3673 25.1083C40.4584 25.1994 40.4584 25.1994 40.4584 25.2905C40.4584 25.3815 40.4584 25.3816 40.5496 25.4727C40.5496 25.4727 40.5496 25.5638 40.6407 25.5638C40.6407 25.5638 40.7319 25.655 40.8229 25.655C40.914 25.655 41.0051 25.655 41.1874 25.5638C41.1874 25.4727 41.2786 25.4727 41.2786 25.4727C41.3697 25.4727 41.4608 25.4727 41.4608 25.4727H41.5519C41.5519 25.5638 41.5519 25.5638 41.5519 25.5638C41.643 25.655 41.7341 25.5638 41.7341 25.655C41.643 25.655 41.5519 25.7461 41.4608 25.7461C41.3696 25.8373 41.2786 25.8373 41.1874 25.7461C41.0963 25.7461 41.0963 25.7461 41.0052 25.7461H40.9141C40.8229 25.7461 40.8229 25.7461 40.7319 25.7461V25.9283C40.823 25.9283 40.823 25.9283 40.9141 25.9283V26.2017C40.8229 26.2017 40.8229 26.2017 40.7319 26.2017C40.6407 26.1105 40.5497 26.1105 40.4585 26.1105C40.4585 26.2017 40.4585 26.2927 40.3674 26.2927V26.3839C40.4585 26.475 40.3674 26.5661 40.3674 26.6572C40.2762 26.5661 40.2762 26.5661 40.1852 26.6572C40.1852 26.6572 40.1852 26.6572 40.094 26.7483C40.094 26.7483 40.0029 26.8395 40.0029 26.7483C39.9118 26.6572 39.9118 26.6572 39.8207 26.7483C39.7296 26.7483 39.7296 26.8395 39.6385 26.8395C39.5474 26.8395 39.4563 26.8395 39.4563 26.9306H39.3652C39.3652 26.8395 39.3652 26.8395 39.3652 26.8395H39.274C39.1829 26.7483 39.1829 26.8395 39.0918 26.8395C39.0007 26.8395 38.9096 26.9306 38.8185 26.9306C38.8185 26.8395 38.7273 26.8395 38.7273 26.8395V26.7483H38.8185C38.8185 26.6572 38.8185 26.6572 38.7273 26.6572C38.7273 26.5661 38.8185 26.5661 38.8185 26.475C38.8185 26.3839 38.8185 26.2928 38.8185 26.2017H38.7273C38.6362 26.2017 38.6362 26.2928 38.5451 26.2928C38.454 26.3839 38.454 26.3839 38.3629 26.475C38.4541 26.6572 38.5451 26.8395 38.4541 27.0217C38.3629 27.0217 38.2719 27.0217 38.1807 27.1128C38.0896 27.1128 37.9985 27.1128 37.9074 27.204C37.8163 27.204 37.8162 27.2951 37.8162 27.2951C37.7251 27.3863 37.7251 27.4773 37.634 27.5685C37.5429 27.6596 37.4518 27.6596 37.3607 27.7507C37.3607 27.8418 37.3607 27.8418 37.3607 27.9329C37.2696 27.9329 37.1785 28.024 37.0874 28.1151C36.9962 28.1151 36.9962 28.1151 36.9962 28.1151C36.9962 28.1151 36.9051 28.0239 36.9051 28.1151C36.9051 28.2062 36.9051 28.2062 36.9051 28.2973C36.8139 28.2973 36.7229 28.3884 36.6317 28.2973C36.5406 28.2973 36.5406 28.2973 36.4495 28.3884C36.4495 28.4795 36.4495 28.5706 36.5407 28.5706H36.6318C36.723 28.5706 36.814 28.6617 36.814 28.7528C36.9052 28.8439 36.9052 28.935 36.9052 29.0261C36.9052 29.0261 36.9052 29.0261 36.9052 29.1173C36.9052 29.2995 36.9052 29.3906 36.814 29.5728C36.5407 29.5728 36.2673 29.5728 36.0851 29.5728C36.0851 29.5728 35.994 29.5728 35.994 29.4817C35.994 29.4817 35.994 29.4817 35.994 29.5728C35.9028 29.4817 35.9029 29.4817 35.8118 29.5728C35.8118 29.5728 35.8118 29.5728 35.7207 29.5728C35.6295 29.5728 35.6295 29.664 35.6295 29.755V29.8462C35.6295 29.9373 35.6295 29.9373 35.6295 30.0284V30.1195C35.6295 30.2107 35.6295 30.2107 35.6295 30.2107C35.6295 30.3018 35.6295 30.3018 35.5384 30.3929C35.4472 30.4839 35.4472 30.484 35.5384 30.5751C35.6295 30.6662 35.6295 30.7573 35.6295 30.8484C35.6295 30.8484 35.6295 30.9395 35.5384 30.9395C35.6295 30.9395 35.7206 30.9395 35.8117 30.9395C35.9028 30.9395 35.9939 31.0307 35.9939 31.1217V31.2129C36.0851 31.2129 36.0851 31.2129 36.1761 31.2129C36.2673 31.1217 36.3583 31.1217 36.4494 31.1217C36.5406 31.1217 36.5406 31.1217 36.6316 31.1217C36.7228 31.1217 36.7228 31.1217 36.8139 31.0306C36.9049 30.9395 36.996 30.8484 37.0872 30.8484C37.1783 30.7573 37.1783 30.5751 37.2694 30.5751V30.4839C37.1782 30.3928 37.2694 30.3928 37.2694 30.3017C37.2694 30.3017 37.2694 30.2106 37.3605 30.2106C37.3605 30.2106 37.3605 30.2106 37.4517 30.1194H37.5428C37.5428 30.0283 37.634 30.0283 37.725 29.9372H37.8162C37.9073 29.8461 37.9073 29.8461 37.9984 29.755V29.6639C37.9072 29.5727 37.9984 29.4817 38.0895 29.4817C38.0895 29.4817 38.1806 29.4817 38.1806 29.3905C38.1806 29.3905 38.1806 29.4817 38.2718 29.4817C38.3629 29.4817 38.454 29.4817 38.5451 29.5728C38.6363 29.664 38.7273 29.4817 38.7273 29.4817C38.8185 29.4817 38.9095 29.4817 38.9095 29.3905L39.0007 29.2994C39.0007 29.2994 39.0918 29.2994 39.0918 29.3905C39.183 29.3905 39.183 29.4817 39.183 29.5727C39.183 29.7549 39.2741 29.8461 39.4563 29.9372C39.5474 29.9372 39.5474 30.0284 39.6385 30.1194L39.7296 30.2106C39.7296 30.2106 39.8208 30.2106 39.8208 30.3017C39.8208 30.3017 39.9119 30.3929 40.003 30.3929V30.484C40.0941 30.484 40.0941 30.484 40.1852 30.484C40.1852 30.5751 40.1852 30.5751 40.1852 30.6662C40.1852 30.7573 40.1852 30.7573 40.1852 30.8484C40.094 30.9395 40.1852 30.9395 40.2763 30.9395C40.2763 30.8484 40.2763 30.8484 40.3675 30.8484V30.7573C40.3675 30.7573 40.3675 30.6661 40.2763 30.6661C40.1852 30.6661 40.1852 30.575 40.2763 30.575V30.4838C40.3675 30.4838 40.3675 30.4838 40.4585 30.4838C40.3674 30.3927 40.2763 30.3016 40.094 30.3016V30.2105C40.0029 30.1193 39.9118 30.1193 39.8207 30.0283C39.7296 29.9371 39.6385 29.8461 39.6385 29.7549C39.5474 29.6638 39.4563 29.5727 39.3652 29.4816C39.3652 29.3905 39.3652 29.2994 39.4563 29.2994C39.4563 29.2994 39.5474 29.2083 39.6385 29.2083C39.6385 29.2994 39.7296 29.2994 39.7296 29.3905C39.8208 29.2993 39.8208 29.2993 39.9118 29.3905V29.4816C39.9118 29.5727 39.9118 29.5727 40.003 29.5727C40.0941 29.6639 40.1852 29.6639 40.1852 29.6639C40.2763 29.755 40.2763 29.8461 40.4585 29.8461C40.5497 29.8461 40.6407 29.9372 40.7319 30.1194C40.7319 30.2106 40.7319 30.3016 40.7319 30.3928V30.4839V30.5751C40.823 30.6662 40.823 30.8484 41.0052 30.8484C41.0052 30.9395 41.0964 30.9395 41.1874 31.0306C41.0963 31.0306 41.0963 31.1217 41.0963 31.1217C41.1874 31.1217 41.0963 31.2129 41.1874 31.2129C41.2786 31.2129 41.3696 31.2129 41.3696 31.304C41.3696 31.2129 41.3696 31.2129 41.3696 31.1218C41.3696 31.0308 41.3696 31.0307 41.4608 30.9396C41.5519 30.9396 41.5519 31.0308 41.643 31.0308C41.643 30.9396 41.643 30.8486 41.4608 30.8486C41.4608 30.7574 41.3696 30.7574 41.4608 30.6664C41.4608 30.5752 41.2786 30.5752 41.3696 30.4842C41.4608 30.393 41.4608 30.5753 41.5518 30.5753C41.5518 30.4842 41.5518 30.4842 41.643 30.4842C41.7341 30.393 41.8252 30.393 41.9163 30.4842H42.0074C42.0986 30.4842 42.1896 30.393 42.3719 30.393C42.4631 30.3019 42.2808 30.3019 42.2808 30.3019C42.2808 30.2107 42.2808 30.1197 42.1896 30.1197C42.1896 30.1197 42.1896 30.0285 42.1896 29.9375L42.2808 29.8463C42.2808 29.7552 42.3719 29.6641 42.3719 29.4819C42.3719 29.4819 42.4631 29.4819 42.4631 29.573C42.4631 29.3908 42.4631 29.3908 42.5542 29.2997C42.5542 29.2997 42.6454 29.2085 42.6454 29.1175H42.8276V29.2086C42.9187 29.2086 43.0098 29.2086 43.1009 29.2086C43.1009 29.2086 43.0098 29.2086 43.0098 29.2997C43.0098 29.3909 43.1009 29.3909 43.1009 29.4819C43.1009 29.5731 43.192 29.5731 43.192 29.6641C43.2832 29.6641 43.3742 29.573 43.4654 29.573C43.4654 29.4819 43.4654 29.3908 43.3742 29.3908C43.3742 29.3908 43.3742 29.2997 43.2831 29.2997C43.3742 29.2997 43.4653 29.2085 43.5564 29.2085C43.5564 29.1174 43.7386 29.1174 43.8298 29.1174C43.9209 29.1174 44.012 29.1174 44.1031 29.1174C43.9209 29.2085 43.9209 29.2085 43.9209 29.3907C43.9209 29.3907 43.9209 29.3907 43.9209 29.4819C43.9209 29.573 43.8298 29.6641 43.8298 29.6641C43.9209 29.6641 43.9209 29.7552 44.012 29.7552C44.012 29.7552 44.1031 29.7552 44.1031 29.8463C44.1943 29.9375 44.2853 29.9375 44.2853 30.0285C44.4675 30.0285 44.5587 30.2107 44.6498 30.393V30.4842C44.5587 30.5753 44.4676 30.5753 44.3765 30.5753C44.1943 30.5753 44.012 30.6665 43.8298 30.4842C43.7386 30.4842 43.6476 30.4842 43.5564 30.393C43.4653 30.3019 43.3742 30.393 43.3742 30.3019C43.3742 30.2107 43.2831 30.2107 43.2831 30.3019C43.192 30.393 43.1009 30.393 43.1009 30.393C43.0098 30.393 43.0098 30.4842 43.0098 30.4842C42.9186 30.5753 42.8276 30.5753 42.7364 30.4842H42.6453C42.6453 30.4842 42.6453 30.5753 42.7364 30.5753C42.7364 30.6665 42.6453 30.6665 42.5542 30.6665C42.4631 30.6665 42.4631 30.6665 42.372 30.7576C42.372 30.5754 42.2809 30.6665 42.1898 30.6665L42.0987 30.7576V30.8487C42.1898 30.8487 42.1898 30.9399 42.1898 31.0309C42.1898 31.2131 42.281 31.3043 42.281 31.3954C42.3721 31.3954 42.3721 31.3954 42.4632 31.3954C42.5543 31.4866 42.6454 31.4866 42.7365 31.5776C42.8276 31.6688 42.9187 31.6688 42.9187 31.4865V31.3953C43.0098 31.3953 43.1009 31.3953 43.192 31.4865L43.2832 31.5776C43.3743 31.5776 43.5565 31.5776 43.5565 31.4865C43.5565 31.4865 43.5565 31.4865 43.6477 31.3953C43.7388 31.3953 43.8299 31.3953 43.8299 31.4865C43.8299 31.6687 43.8299 31.851 44.0121 31.942C43.9209 31.942 43.9209 31.942 43.8299 31.942C43.8299 32.0332 43.8299 32.0332 43.8299 32.0332V32.1243C43.8299 32.2154 43.7387 32.3065 43.7387 32.4888C43.7387 32.5799 43.6476 32.671 43.5565 32.671C43.3743 32.671 43.192 32.671 43.101 32.5799H43.0098C42.9187 32.5799 42.9187 32.671 42.8276 32.671C42.7365 32.7621 42.7365 32.7621 42.6454 32.671C42.5543 32.5799 42.4632 32.5799 42.3721 32.5799C42.281 32.4887 42.1899 32.4887 42.0076 32.4887C41.9165 32.3976 41.7343 32.3976 41.6431 32.3065L41.552 32.2154H41.4608H41.3697C41.2786 32.2154 41.2786 32.3065 41.1875 32.3976C41.1875 32.4887 41.1875 32.5798 41.1875 32.762H41.0964C41.0052 32.8532 40.9142 32.8532 40.823 32.6709C40.7319 32.5798 40.7319 32.5798 40.6408 32.5798C40.5497 32.5798 40.4586 32.5798 40.3675 32.4886C40.2763 32.4886 40.2763 32.3064 40.2763 32.3064C40.1852 32.3064 40.0941 32.2153 40.003 32.2153C40.003 32.1241 39.9118 32.2153 39.9118 32.2153H39.8207H39.7296C39.6384 32.1241 39.5474 32.1241 39.4562 32.0331C39.4562 31.9419 39.4562 31.9419 39.5474 31.9419C39.6385 31.8508 39.6385 31.7597 39.6385 31.5775C39.6385 31.5775 39.6385 31.5775 39.5474 31.5775C39.5474 31.5775 39.5474 31.5775 39.4562 31.5775C39.6384 31.4863 39.3651 31.3953 39.4562 31.3041C39.3651 31.3041 39.274 31.3041 39.1829 31.3953H39.0917C39.0006 31.3953 38.9095 31.3953 38.8184 31.3953H38.7272C38.6361 31.4864 38.545 31.4864 38.4539 31.3953C38.4539 31.3953 38.3628 31.3953 38.2717 31.3953C38.1806 31.4864 38.0895 31.3953 38.0895 31.4864C37.9984 31.4864 37.9984 31.4864 37.9984 31.4864C37.9072 31.5775 37.725 31.4864 37.6339 31.6686C37.5427 31.6686 37.5427 31.6686 37.4517 31.7597C37.3605 31.8509 37.1783 31.8509 37.0872 31.8509C37.0872 31.8509 37.0872 31.8509 36.9961 31.8509C36.9049 31.942 36.8139 31.942 36.8139 31.8509C36.7227 31.8509 36.6316 31.8509 36.7227 31.6687C36.6316 31.6687 36.5405 31.6687 36.5405 31.7598C36.5405 31.851 36.5405 31.942 36.4494 31.942C36.3582 32.0332 36.3582 32.0332 36.2672 32.1242C36.1761 32.2153 35.9938 32.3064 35.9938 32.4887C35.9027 32.5799 35.9027 32.6709 35.9027 32.762C35.9027 32.9442 35.9027 33.1265 35.7205 33.2176C35.6293 33.3087 35.6293 33.3998 35.5383 33.3998C35.4471 33.4909 35.3561 33.4909 35.2649 33.4909V33.5821C35.2649 33.6732 35.2649 33.7643 35.0827 33.8554C34.9916 33.8554 34.9916 33.9466 34.9916 34.0376C34.9916 34.2198 34.9005 34.311 34.9005 34.4021V34.4932H34.8093C34.8093 34.5844 34.7182 34.8577 34.6271 34.9488C34.536 35.0399 34.536 35.131 34.6271 35.2221C34.7183 35.3133 34.7183 35.4043 34.6271 35.4955C34.6271 35.5866 34.6271 35.6777 34.6271 35.6777C34.7183 35.7688 34.7183 35.8599 34.6271 35.951C34.6271 36.0422 34.536 36.1332 34.536 36.3155C34.536 36.3155 34.536 36.3155 34.536 36.4066C34.4448 36.4978 34.4448 36.5888 34.4448 36.7711C34.4448 36.8623 34.4448 36.8623 34.536 36.9533V37.0445C34.4448 37.1356 34.4448 37.2267 34.536 37.3178C34.6271 37.3178 34.6271 37.409 34.7182 37.409C34.7182 37.5001 34.7182 37.5912 34.8093 37.5912C34.8093 37.5912 34.8093 37.5912 34.8093 37.6823C34.8093 37.7734 34.9005 37.8645 34.9915 37.8645C34.9915 38.0467 35.0827 38.1378 35.0827 38.32C35.1738 38.4112 35.1738 38.4112 35.2649 38.4112C35.356 38.5023 35.4471 38.5934 35.6293 38.6845C35.7205 38.7757 35.7205 38.7757 35.8115 38.8667C35.9027 38.9579 35.9937 38.9579 35.9937 38.9579C36.0849 38.9579 36.1759 38.9579 36.2671 38.8667C36.2671 38.8667 36.3582 38.8667 36.3582 38.7756C36.4494 38.7756 36.5404 38.7756 36.6316 38.6844C36.6316 38.6844 36.7227 38.7756 36.7227 38.6844C36.7227 38.7756 36.9049 38.6844 36.9049 38.7756H36.9961C36.9961 38.6844 37.0872 38.6844 37.1783 38.6844C37.3605 38.5933 37.5427 38.5933 37.6338 38.4111C37.6338 38.4111 37.6338 38.4111 37.7249 38.4111C37.8161 38.4111 37.8161 38.4111 37.9071 38.4111H37.9983C38.0894 38.4111 38.0894 38.4111 38.1805 38.4111C38.2716 38.4111 38.2716 38.4111 38.3627 38.5022C38.3627 38.5934 38.4538 38.6844 38.4538 38.7756C38.4538 38.8667 38.545 38.8667 38.545 38.9578H38.6361H38.7272C38.8184 38.9578 38.8184 38.9578 38.8184 38.9578C38.9095 38.8666 38.9095 38.9578 39.0006 38.9578V39.0489C39.0917 39.0489 39.0917 39.1401 39.0917 39.1401C39.1829 39.2312 39.1829 39.3223 39.1829 39.3223C39.1829 39.4134 39.1829 39.5045 39.0917 39.5045C39.0006 39.5045 39.0006 39.5956 39.0917 39.6867C39.0917 39.7778 39.0917 39.8689 39.0917 39.96C39.0917 40.0512 39.0006 40.0512 39.0006 40.1422C39.0006 40.3244 39.0006 40.4156 39.1828 40.5067C39.2739 40.5978 39.365 40.6889 39.365 40.78C39.365 40.8712 39.4561 40.8712 39.4561 40.9622C39.4561 41.0534 39.5473 41.0534 39.5473 41.1444C39.5473 41.2356 39.6384 41.2356 39.6384 41.3266V41.4178H39.7296C39.6384 41.5089 39.6384 41.5089 39.7296 41.6C39.8207 41.691 39.8207 41.8733 39.8207 41.9645V42.0556V42.1468V42.2379V42.329C39.9118 42.4202 39.9118 42.5112 39.9118 42.6935C39.9118 42.7847 39.9118 42.8757 39.8207 42.9669H39.7296V43.058C39.6384 43.1492 39.6384 43.2402 39.6384 43.4225C39.6384 43.4225 39.6384 43.4225 39.6384 43.5136C39.5473 43.6958 39.5473 43.787 39.5473 43.9692C39.5473 44.1514 39.5473 44.2425 39.6384 44.4247C39.7296 44.5159 39.7296 44.6069 39.7296 44.6981C39.7296 44.7892 39.8207 44.9714 39.9118 45.0626C39.9118 45.1537 39.9118 45.1537 40.0029 45.1537C40.094 45.2448 40.094 45.3359 40.094 45.427C40.094 45.5182 40.094 45.6092 40.094 45.7915V45.8827C40.1852 45.9738 40.094 46.0649 40.1852 46.156C40.1852 46.2471 40.1852 46.2471 40.1852 46.3382V46.4293C40.1852 46.5203 40.1852 46.6115 40.2763 46.6115C40.3675 46.6115 40.2763 46.7937 40.4585 46.7937C40.4585 46.8847 40.5497 46.9759 40.5497 47.1581C40.5497 47.2492 40.5497 47.2492 40.6408 47.3403C40.6408 47.3403 40.6408 47.4314 40.732 47.5225V47.6136C40.732 47.7047 40.732 47.7958 40.732 47.887V47.978C40.8231 48.0691 40.732 48.1602 40.8231 48.1602C40.9142 48.2513 41.0053 48.2513 41.0964 48.3424C41.1876 48.2514 41.2786 48.2514 41.3698 48.2514H41.4609C41.5521 48.1603 41.6431 48.1603 41.7343 48.1603C41.8254 48.1603 41.9165 48.1603 42.0988 48.1603H42.1899C42.1899 48.0692 42.281 48.0692 42.281 48.0692C42.3722 48.0692 42.3722 48.0692 42.4632 48.0692C42.5544 47.9782 42.7366 47.9782 42.7366 47.7959C42.7366 47.7048 42.8277 47.7048 42.8277 47.7048C42.9189 47.5226 43.1011 47.5226 43.1011 47.3403C43.1922 47.2493 43.1922 47.1582 43.2833 47.067C43.4655 47.067 43.3744 46.8848 43.4655 46.7937C43.4655 46.6115 43.5566 46.5203 43.5566 46.3381C43.5566 46.2471 43.5566 46.2471 43.5566 46.2471C43.6478 46.2471 43.6478 46.2471 43.6478 46.156C43.7389 46.065 43.7389 46.065 43.83 46.065C43.9211 46.065 43.9211 45.9738 44.0122 45.9738C44.0122 45.9738 44.1033 45.8827 44.0122 45.8827C44.0122 45.7915 44.0122 45.7005 44.0122 45.7005C44.0122 45.6093 44.0122 45.5183 44.0122 45.5183C43.921 45.4271 44.0122 45.3361 44.0122 45.2449C44.0122 45.1538 44.0122 45.0627 44.0122 45.0627V44.9716C44.1033 44.8804 44.1033 44.7894 44.1944 44.6982C44.2855 44.6982 44.3766 44.6071 44.3766 44.516C44.3766 44.4249 44.4677 44.3338 44.5588 44.3338C44.741 44.2427 44.8321 44.1516 44.9232 44.0605L45.0144 43.9694C45.0144 43.9694 45.0144 43.8782 45.1055 43.8782L45.1967 43.7871C45.1967 43.4226 45.1967 43.1492 45.1967 42.7848C45.1967 42.6937 45.1967 42.6937 45.1055 42.6026C45.0144 42.5116 45.0144 42.4204 45.0144 42.3293V42.2382C45.0144 42.147 44.9232 42.147 45.0144 42.056C45.0144 42.056 44.9232 41.9648 45.0144 41.9648C45.1055 41.8737 45.0144 41.8737 45.0144 41.7826C45.0144 41.7826 45.0144 41.7826 45.0144 41.6915L44.9232 41.6003C44.8321 41.4181 45.0144 41.327 45.0144 41.1448C45.0144 41.0536 45.1055 41.0536 45.1055 40.9626C45.1055 40.8714 45.1967 40.7804 45.1967 40.6892L45.2878 40.5981C45.379 40.507 45.5612 40.4159 45.5612 40.3248V40.2336C45.6523 40.1425 45.7434 40.0514 45.8345 39.8691C45.9256 39.6869 46.1078 39.5958 46.29 39.5046C46.3812 39.5046 46.4722 39.4135 46.4722 39.3224H46.5634C46.5634 39.2313 46.7456 39.1402 46.6545 39.0491C46.7457 39.0491 46.6545 38.958 46.7457 38.8669C46.8368 38.7758 46.9279 38.6847 46.8368 38.5024V38.4113C46.928 38.3201 46.928 38.3201 46.928 38.2291C47.0191 38.2291 47.0191 38.1379 47.0191 38.0469C47.0191 38.0469 47.0191 38.0469 47.0191 37.9557C47.1102 37.8646 47.1102 37.8646 47.1102 37.7735C47.1102 37.6825 47.1102 37.6824 47.1102 37.5913C47.2014 37.5002 47.1102 37.4091 47.1102 37.2268C47.0191 37.2268 46.928 37.318 46.7458 37.318C46.7458 37.4091 46.6546 37.4091 46.6546 37.4091C46.5635 37.4091 46.5635 37.4091 46.4724 37.4091C46.3813 37.4091 46.3813 37.4091 46.2902 37.5003C46.2902 37.5914 46.1991 37.5914 46.1991 37.5914C46.1079 37.5914 46.1079 37.5914 46.0169 37.5914C45.9257 37.6826 45.8347 37.5914 45.7435 37.5914C45.7435 37.4092 45.6524 37.3181 45.4702 37.3181C45.5613 37.3181 45.5613 37.3181 45.6524 37.3181C45.6524 37.2269 45.6524 37.1359 45.5612 37.0447C45.4701 36.9536 45.2879 36.8625 45.2879 36.6802C45.2879 36.6802 45.2879 36.5891 45.1968 36.5891C45.1056 36.5891 45.1056 36.498 45.0146 36.498C44.9235 36.498 44.9234 36.3158 44.8324 36.3158V36.2246C44.8324 36.1335 44.7412 35.9513 44.7412 35.8601C44.6501 35.769 44.559 35.769 44.559 35.6779C44.559 35.6779 44.4679 35.5868 44.4679 35.4957C44.4679 35.4046 44.4679 35.3135 44.4679 35.1312C44.4679 35.0401 44.4679 34.949 44.3767 34.8579C44.2856 34.8579 44.1945 34.6757 44.1034 34.5846C44.1034 34.4934 44.1034 34.3112 44.0122 34.2201C43.9211 34.1289 43.9211 33.9467 43.83 33.8556V33.7644V33.6733C43.7389 33.5822 43.83 33.4911 43.83 33.4911C43.9212 33.4911 43.9212 33.4911 44.0122 33.5822C44.1034 33.4911 44.0122 33.3089 44.1034 33.2178V33.4911C44.1945 33.4911 44.1945 33.5822 44.1945 33.5822C44.1945 33.5822 44.2857 33.6734 44.2857 33.7644C44.3768 33.8556 44.4679 33.9466 44.4679 34.1289C44.4679 34.1289 44.4679 34.2201 44.559 34.2201C44.6502 34.3112 44.6502 34.4023 44.6502 34.4934C44.7413 34.4934 44.7413 34.4934 44.7413 34.5846C44.8324 34.7668 44.9235 34.949 44.9235 35.1312C44.9235 35.2224 45.0146 35.3134 45.1057 35.4046C45.2879 35.4957 45.379 35.5868 45.379 35.7691C45.4702 35.8602 45.4702 35.8602 45.4702 35.9513C45.5613 36.0424 45.5613 36.1335 45.6524 36.2246C45.6524 36.3158 45.7435 36.3158 45.7435 36.4068C45.7435 36.498 45.6524 36.6802 45.8347 36.7713C45.8347 36.9535 45.9258 37.0446 45.9258 37.2268C46.017 37.2268 46.108 37.2268 46.108 37.2268C46.1992 37.2268 46.1992 37.2268 46.2902 37.1357C46.2902 37.0446 46.3814 37.0446 46.3814 37.0446C46.4725 37.0446 46.4725 37.0446 46.5636 37.0446C46.6547 37.0446 46.7458 36.8624 46.928 36.8624C46.928 36.8624 46.928 36.8624 47.0192 36.7712C47.0192 36.6801 47.1103 36.6801 47.1103 36.6801C47.1103 36.6801 47.1103 36.6801 47.2015 36.6801C47.2926 36.5889 47.3837 36.5889 47.4748 36.5889C47.566 36.5889 47.566 36.4978 47.566 36.4978V36.4066C47.6571 36.4066 47.6571 36.3155 47.6571 36.3155C47.8393 36.2244 47.9304 36.1333 48.1126 36.1333C48.1126 36.0422 48.1126 36.0422 48.1126 35.9511C48.2038 35.9511 48.2948 35.9511 48.2948 35.9511C48.2948 35.86 48.386 35.7689 48.386 35.6778C48.4771 35.6778 48.4771 35.6778 48.5682 35.6778C48.5682 35.5866 48.5682 35.5866 48.5682 35.4956C48.5682 35.4044 48.5682 35.4044 48.6593 35.3134C48.7505 35.3134 48.8415 35.2222 48.8415 35.1312C48.9327 34.949 49.0237 34.8578 48.8415 34.6756L48.7504 34.5845C48.6592 34.5845 48.6592 34.5845 48.5682 34.4933C48.477 34.4022 48.477 34.4022 48.386 34.4022V34.311C48.2948 34.2199 48.2948 34.1288 48.2948 34.0377C48.2948 34.0377 48.2037 34.0377 48.2037 34.1288C48.2037 34.22 48.1126 34.22 48.1126 34.311C48.0214 34.4022 48.0214 34.4022 47.9304 34.4932C47.8392 34.4932 47.657 34.4932 47.5659 34.5844C47.4747 34.4022 47.4747 34.4022 47.4747 34.2199V34.0377C47.3836 34.0377 47.3836 34.0377 47.3836 34.0377C47.3836 34.1288 47.3836 34.2199 47.3836 34.311C47.2924 34.2199 47.2924 34.1288 47.2924 34.0377C47.2924 33.8555 47.1102 33.7644 47.0191 33.6732C47.0191 33.491 46.8369 33.3999 46.8369 33.1265C46.928 33.1265 46.928 33.1265 47.0191 33.1265C47.0191 33.1265 47.0191 33.1265 47.0191 33.0354C47.1102 33.0354 47.1102 33.0354 47.1102 33.0354C47.2014 33.0354 47.2014 33.0354 47.2924 33.1265V33.2177C47.3836 33.3088 47.3836 33.3999 47.4746 33.491C47.4746 33.5822 47.5658 33.5822 47.6568 33.5822C47.748 33.5822 47.748 33.6733 47.839 33.6733C47.839 33.6733 47.839 33.6733 47.9302 33.7644C47.9302 33.7644 48.0213 33.7644 48.0213 33.8556C48.1125 33.9467 48.2035 33.9467 48.2947 33.9467C48.2947 33.9467 48.3858 33.9467 48.3858 33.8556C48.477 33.8556 48.477 33.7644 48.568 33.7644H48.6592C48.7503 33.8556 48.8414 33.8556 48.8414 33.9466C48.8414 34.0378 48.9325 34.1288 49.0236 34.1288C49.1146 34.1288 49.1147 34.1288 49.2058 34.1288C49.2969 34.22 49.388 34.1288 49.4791 34.22H49.5702H49.6614C49.7525 34.22 49.8436 34.22 49.9347 34.1288H50.5726C50.5726 34.22 50.6637 34.22 50.6637 34.311C50.6637 34.4022 50.6637 34.4932 50.7548 34.4932C50.846 34.4932 50.846 34.5844 50.937 34.6754C51.0282 34.6754 51.0282 34.7666 51.1192 34.7666C51.1192 34.7666 51.2104 34.7666 51.2104 34.6754V34.7666C51.1192 34.7666 51.1192 34.7666 51.0282 34.7666V34.9488C51.2104 34.9488 51.2104 35.0399 51.3015 35.131C51.4837 35.2221 51.4837 35.131 51.666 35.0398C51.666 35.0398 51.666 34.9487 51.5749 34.9487L51.666 34.8576C51.666 34.9487 51.7572 35.0398 51.666 35.0398L51.7572 35.1309C51.8483 35.222 51.8483 35.222 51.7572 35.222C51.666 35.3132 51.666 35.4042 51.7572 35.4042C51.8483 35.4042 51.8483 35.4954 51.8483 35.5864V35.6776C51.9394 35.7687 51.8483 35.9509 51.9394 36.0421C51.9394 36.1332 51.9394 36.2243 52.0306 36.3154C52.1217 36.4066 52.1217 36.5888 52.2128 36.6799C52.2128 36.771 52.3039 36.771 52.3039 36.8621C52.3039 36.9532 52.3039 37.0443 52.3951 37.1354C52.3951 37.2266 52.5773 37.3176 52.5773 37.4999C52.6684 37.5911 52.6684 37.7733 52.7595 37.8644C52.7595 37.9556 52.8506 38.0466 52.8506 38.0466C52.8506 38.1378 52.9417 38.1378 53.0328 38.1378H53.1239C53.1239 38.0466 53.1239 38.0466 53.1239 37.9556H53.2151C53.2151 37.8644 53.2151 37.8644 53.2151 37.7734C53.2151 37.6822 53.3062 37.6822 53.3062 37.5912H53.3974C53.3974 37.5 53.3974 37.409 53.3974 37.3178V37.2267C53.4885 37.1355 53.4885 37.0445 53.3974 37.0445C53.3062 36.9533 53.3974 36.8623 53.3062 36.68V36.5888C53.2151 36.4977 53.3062 36.4977 53.3062 36.4977C53.3062 36.4066 53.3974 36.3155 53.4884 36.3155C53.4884 36.2244 53.6706 36.3155 53.6706 36.2244C53.6706 36.1332 53.7618 36.0422 53.7618 35.951C53.8529 35.8599 53.8529 35.7688 53.944 35.7688C53.944 35.6777 54.0351 35.5866 54.0351 35.4955C54.1263 35.4043 54.1263 35.3133 54.2173 35.3133C54.3085 35.3133 54.3085 35.2221 54.3085 35.2221V35.131C54.3085 35.0398 54.3085 34.9488 54.3996 34.9488C54.4907 34.8576 54.4907 34.9488 54.5818 34.9488H54.6729C54.7641 34.9488 54.8551 34.9488 54.8551 34.8576C54.8551 34.8576 54.9463 34.7665 54.9463 34.6754H55.0374C55.1286 34.7666 55.2196 34.8576 55.2196 34.9488C55.2196 35.0399 55.3108 35.131 55.4018 35.2221C55.493 35.3133 55.584 35.3133 55.584 35.4955C55.6752 35.4955 55.6752 35.5866 55.7662 35.5866C55.7662 35.6778 55.8574 35.7688 55.8574 35.86C55.8574 35.9511 55.8574 36.0422 55.8574 36.2244C55.8574 36.2244 55.8574 36.2244 55.9485 36.2244C56.0397 36.3156 56.0397 36.3156 56.1307 36.2244C56.2219 36.1333 56.3129 36.1333 56.4041 36.0422V35.9511C56.4041 36.0422 56.4041 36.0422 56.4952 36.0422C56.5863 36.1334 56.5863 36.1334 56.5863 36.2244C56.5863 36.2244 56.5863 36.2244 56.5863 36.3156C56.6775 36.4067 56.6775 36.5889 56.7685 36.6801C56.8597 36.7712 56.8597 36.8623 56.8597 36.9534C56.8597 37.0446 56.8597 37.1356 56.8597 37.2268C56.8597 37.2268 56.8597 37.3179 56.8597 37.409V37.5001C56.8597 37.6823 56.8597 37.8646 56.8597 37.9556C56.9508 38.0468 57.0419 38.1378 57.0419 38.229C57.133 38.3201 57.133 38.4112 57.2241 38.5023C57.2241 38.5935 57.3152 38.5935 57.2241 38.6845V38.7757L57.3152 38.8668C57.3152 38.8668 57.3152 38.8668 57.2241 38.8668C57.2241 38.958 57.2241 39.049 57.3152 39.049C57.4064 39.1402 57.4064 39.2312 57.4064 39.3224H57.4975C57.4975 39.4135 57.5887 39.4135 57.6797 39.5046C57.7709 39.5046 57.7709 39.5957 57.8619 39.5957C57.8619 39.6868 57.9531 39.5957 57.9531 39.5957C57.9531 39.5046 57.9531 39.4135 57.9531 39.4135C57.8619 39.3224 57.8619 39.1402 57.8619 39.049C57.8619 38.9579 57.8619 38.9579 57.8619 38.8668C57.8619 38.7758 57.7708 38.6846 57.7708 38.5935C57.6796 38.5023 57.5886 38.4113 57.5886 38.3201L57.4974 38.229C57.4063 38.229 57.3152 38.1378 57.2241 38.0468C57.3152 37.9556 57.3152 37.9556 57.2241 37.8646C57.2241 37.8646 57.1329 37.7734 57.1329 37.6824H57.0418C57.0418 37.5002 57.0418 37.409 57.0418 37.2268V37.1357C57.0418 37.0446 57.224 36.9535 57.0418 36.8624C57.1329 36.7712 57.0418 36.7712 57.0418 36.7712C57.1329 36.6801 57.1329 36.6801 57.224 36.7712C57.224 36.7712 57.224 36.7712 57.1329 36.8624L57.224 36.9535H57.3151C57.3151 37.0446 57.3151 37.0446 57.4063 37.0446L57.4974 37.1358C57.4974 37.2269 57.5886 37.318 57.5886 37.4091H57.6797C57.7709 37.5003 57.8619 37.5913 58.0442 37.6825V37.7736C57.9531 37.7736 57.9531 37.8648 57.9531 37.9558C58.1353 38.047 58.1353 37.8647 58.2264 37.8647L58.3175 37.7735V37.6824H58.4087C58.4998 37.2268 58.4998 36.8624 58.4998 36.4068V36.3157C58.3176 36.2245 58.2265 36.0423 58.1353 35.9512C58.1353 35.86 58.0442 35.769 57.9531 35.769C57.862 35.6778 57.862 35.5868 57.9531 35.4956C57.9531 35.4045 58.0443 35.4045 58.0443 35.3134C58.0443 35.2224 58.1354 35.1312 58.2265 35.1312C58.3176 35.0401 58.3176 35.0401 58.4087 35.0401C58.4087 35.0401 58.4087 35.0401 58.4998 35.1312C57.0407 30.2102 54.9451 26.0189 51.5738 23.1944Z" fill="#E8F1FF"/>
<path d="M54.0339 42.8748C53.9428 42.7836 54.0339 42.6926 53.9428 42.6014C53.8516 42.5103 53.8516 42.5103 53.8516 42.3281V42.2369C53.7605 42.2369 53.7605 42.2369 53.6694 42.2369C53.6694 42.0547 53.6694 41.9636 53.5783 41.8725C53.5783 41.7813 53.5783 41.7813 53.6694 41.7813C53.5783 41.6902 53.3961 41.6902 53.3961 41.5991C53.3049 41.5991 53.3049 41.508 53.2139 41.508C53.2139 41.4168 53.2139 41.2346 53.2139 41.1435V41.0523C53.1227 40.9612 53.2139 40.8701 53.2139 40.8701C53.2139 40.779 53.2139 40.6879 53.2139 40.6879V40.5968C53.2139 40.5057 53.1227 40.5057 53.0317 40.5057V40.4145C52.9405 40.3234 52.9405 40.3234 53.0317 40.2323V40.1412C53.0317 40.1412 53.0317 40.1412 53.0317 40.05C53.0317 39.9589 52.9405 39.7767 52.9405 39.6855H52.8494C52.8494 39.7767 52.8494 39.8677 52.7582 39.8677C52.6671 39.9589 52.6671 40.0499 52.6671 40.1411V40.2322C52.576 40.2322 52.6671 40.3234 52.576 40.4144C52.576 40.5056 52.576 40.5966 52.4848 40.6878C52.4848 40.7789 52.3937 40.87 52.3937 40.9611C52.3937 41.1433 52.3025 41.1433 52.2115 41.3256C52.2115 41.3256 52.2115 41.3256 52.1203 41.3256C51.9381 41.3256 51.9381 41.3256 51.847 41.1434C51.7558 41.1434 51.6648 41.0523 51.5736 40.9612L51.4825 40.8701C51.3914 40.8701 51.3914 40.7789 51.3914 40.7789L51.3002 40.6878C51.3002 40.5966 51.3914 40.5056 51.3914 40.4144C51.3914 40.3233 51.4825 40.3233 51.4825 40.2322C51.5736 40.2322 51.5736 40.1411 51.5736 40.05C51.4825 40.05 51.3914 40.05 51.3914 39.9589H51.3003C51.3003 39.9589 51.3003 39.9589 51.2092 39.9589C51.118 39.9589 51.027 39.9589 50.9358 39.8677C50.9358 39.8677 50.8447 39.8677 50.7536 39.7766C50.7536 39.8677 50.7536 39.9588 50.5714 39.9588C50.4803 39.9588 50.3892 39.9588 50.2981 40.0499C50.2069 40.0499 50.2069 40.1411 50.2069 40.2321C50.2069 40.3233 50.2069 40.4143 50.0247 40.4143C50.0247 40.5055 50.0247 40.5965 50.0247 40.6877C49.9336 40.6877 49.9336 40.6877 49.8425 40.6877C49.8425 40.6877 49.7514 40.6877 49.6603 40.6877V40.5965V40.5054C49.6603 40.4143 49.5692 40.3232 49.4781 40.4143C49.387 40.5054 49.2959 40.5054 49.1137 40.5054C49.1137 40.5965 49.1137 40.5965 49.0225 40.6876C48.9314 40.7787 48.8403 40.8698 48.9314 40.9609C48.8402 40.9609 48.8402 40.9609 48.7492 40.9609C48.658 41.0521 48.7492 41.0521 48.7492 41.1431L48.658 41.2343C48.658 41.2343 48.5669 41.2343 48.5669 41.1431C48.5669 41.1431 48.4757 41.052 48.4757 41.1431L48.3846 41.2343C48.3846 41.4165 48.2935 41.4165 48.2935 41.5076C48.2023 41.5988 48.2023 41.5988 48.1113 41.6898L48.0201 41.781C47.929 41.781 47.8379 41.8721 47.7468 41.8721C47.6556 41.9633 47.5646 41.9633 47.3823 41.9633C47.2911 41.9633 47.2911 41.9633 47.2001 42.0544L47.1089 42.1455C47.0178 42.2367 46.9267 42.2367 46.8356 42.3277L46.7445 42.4189C46.7445 42.4189 46.6533 42.4189 46.6533 42.3277V42.5099C46.6533 42.6011 46.6533 42.6011 46.6533 42.6011C46.5622 42.6922 46.5622 42.7833 46.5622 42.8744C46.5622 42.9656 46.5622 43.0566 46.6533 43.1478C46.6533 43.2389 46.6533 43.2389 46.6533 43.33C46.6533 43.33 46.5622 43.33 46.5622 43.4211C46.5622 43.5123 46.6533 43.6033 46.5622 43.6945C46.5622 43.7856 46.6533 43.8767 46.6533 44.0589V44.1501C46.5622 44.3323 46.5622 44.4234 46.6533 44.6056V44.6968C46.5622 44.7879 46.5622 44.9701 46.5622 45.0613H46.471C46.3799 45.0613 46.3799 45.1524 46.3799 45.2435C46.471 45.3346 46.471 45.4257 46.5621 45.4257C46.6532 45.4257 46.7443 45.4257 46.7443 45.4257C46.8354 45.4257 46.9265 45.3345 47.0176 45.2435C47.1088 45.1523 47.1998 45.0613 47.3821 45.0613C47.4733 45.0613 47.5643 45.0613 47.6555 45.0613C47.7466 45.0613 47.8377 45.0613 47.9288 44.9701L48.0199 44.879C48.1111 44.879 48.2021 44.7878 48.2933 44.7878C48.4755 44.6967 48.4755 44.6967 48.5666 44.6967C48.6578 44.6967 48.7488 44.6967 48.84 44.6055C48.9311 44.5144 49.0222 44.5144 49.1133 44.5144C49.2045 44.5144 49.2045 44.5144 49.2955 44.5144C49.3866 44.5144 49.3867 44.5144 49.4777 44.4233C49.5689 44.5144 49.6599 44.5144 49.7511 44.6055C49.8422 44.6055 49.8422 44.6055 49.9333 44.6966C49.9333 44.7877 49.9333 44.7877 49.9333 44.7877C49.9333 44.8789 49.9333 44.8789 50.0244 44.9699C50.0244 45.0611 50.0244 45.0611 50.0244 45.1521V45.2433C50.1155 45.2433 50.1155 45.2433 50.2066 45.1521C50.2977 45.061 50.4799 44.8788 50.5711 44.7877L50.6622 44.6965C50.7534 44.7877 50.5711 44.7877 50.5711 44.8787C50.4799 44.8787 50.4799 44.9699 50.4799 44.9699C50.5711 44.9699 50.5711 44.9699 50.6621 44.9699V45.061V45.1521C50.7533 45.1521 50.7533 45.1521 50.7533 45.1521H50.6621C50.7533 45.2433 50.7533 45.3343 50.7533 45.3343C50.6621 45.4255 50.7533 45.5165 50.7533 45.6988C50.8444 45.6988 50.9355 45.79 51.0266 45.79C51.1178 45.8811 51.2088 45.8811 51.3 45.79C51.3911 45.6988 51.3911 45.6988 51.4822 45.6988C51.4822 45.79 51.5733 45.881 51.5733 45.881C51.6645 45.881 51.6645 45.881 51.7555 45.881C51.8467 45.881 51.8466 45.881 51.9377 45.7899C52.0288 45.6987 52.0288 45.6987 52.1199 45.6987C52.211 45.6987 52.3932 45.6987 52.4844 45.6076C52.4844 45.6076 52.4844 45.6076 52.4844 45.5165C52.5755 45.3343 52.6666 45.152 52.7577 45.0609C52.8489 45.0609 52.8489 44.9698 52.8489 44.8787C52.8489 44.7876 52.94 44.7876 52.94 44.7876C52.94 44.6964 52.94 44.6054 53.0312 44.6054C53.1223 44.5142 53.2134 44.5142 53.2134 44.4232C53.3045 44.332 53.3045 44.241 53.3956 44.241C53.4867 44.1498 53.4867 44.1498 53.4867 44.0588V43.9676C53.4867 43.8765 53.4867 43.8765 53.5778 43.7854C53.5778 43.6943 53.669 43.6032 53.669 43.6032C53.669 43.5121 53.7601 43.421 53.7601 43.421C53.7601 43.3299 53.7601 43.3299 53.7601 43.2388C53.7601 43.0566 53.8513 42.9655 53.8513 42.8743C54.125 42.9659 54.125 42.9659 54.0339 42.8748Z" fill="#E8F1FF"/>
<path d="M36.6312 50.1634C37.7886 50.1634 38.7268 48.45 38.7268 46.3366C38.7268 44.2231 37.7886 42.5098 36.6312 42.5098C35.4739 42.5098 34.5356 44.2231 34.5356 46.3366C34.5356 48.45 35.4739 50.1634 36.6312 50.1634Z" fill="#344A5E"/>
<path d="M20.8687 57.9086L21.3242 56.3596L33.898 55.084C33.898 55.084 34.1713 56.0862 34.718 57.9085L20.8687 57.9086Z" fill="#344A5E"/>
<path d="M36.1757 50.8924C36.0846 52.897 36.2668 55.4481 36.5402 57.9082H33.8979C33.169 54.8103 32.2579 48.4323 32.2579 48.4323C32.2579 48.4323 32.6223 38.2275 31.9845 35.9497C31.4378 33.7629 31.3467 33.3984 31.3467 33.3984L32.0756 33.5806C32.0756 33.5806 35.1735 34.3095 35.629 35.0385C36.0846 35.7675 37.4513 38.4097 37.3602 40.7787C37.3602 43.0567 36.358 46.9745 36.1757 50.8924Z" fill="#344A5E"/>
<path d="M37.1782 49.3435C37.1782 49.3435 37.7248 48.7968 37.816 47.9768C37.9071 47.2479 37.6338 46.0634 36.996 45.3345C36.2671 44.6056 35.5381 44.7878 35.5381 44.7878L34.1714 45.1523L37.1782 49.3435Z" fill="#E8EAE9"/>
<path d="M22.6907 24.7442L23.1463 28.9355L29.8887 34.2201V28.7533C29.8887 28.7533 31.8021 27.3866 31.6199 23.2864C31.6199 23.2864 31.8021 21.0085 31.4377 19.4596C30.9822 17.9107 30.4355 16.4529 29.0688 15.9062C27.7021 15.3595 23.7841 16.4529 22.9641 17.0907C22.2352 17.8195 21.4152 23.013 22.6907 24.7442Z" fill="#FECACA"/>
<path d="M21.3241 22.3744L22.5997 23.2856L22.873 23.0123C22.6908 22.1011 23.0552 20.6433 23.5109 19.9144C23.6931 19.641 23.6931 19.2765 23.6931 19.0032C23.6019 18.2743 24.0575 17.5453 24.7864 17.272C24.9686 17.1808 25.242 17.1808 25.4243 17.1808C26.8821 17.363 28.3399 17.363 29.6155 16.9986C29.7977 16.9075 29.98 16.9986 30.1622 17.0898C30.8 17.5453 30.9822 18.3654 31.0734 19.0943C31.1645 19.9144 31.2556 20.0055 31.5289 20.8255C31.8023 21.6456 31.5289 23.1945 31.5289 23.1945H31.7111C31.7111 23.1945 31.8023 22.5566 31.9845 21.5544C32.0756 20.5522 31.62 18.2743 31.2556 17.2721C30.8912 16.2698 29.98 15.2675 29.0688 14.6298C28.1577 13.992 27.1554 13.992 25.9709 14.2653C24.6954 14.5386 22.5086 16.1787 21.7797 18.001C20.7774 20.0055 21.3241 22.3744 21.3241 22.3744Z" fill="#415A6B"/>
<path d="M21.1256 24.1729C21.4389 25.182 22.0435 25.8912 22.476 25.7569C22.9085 25.6227 23.0051 24.6957 22.6918 23.6866C22.3785 22.6774 21.7739 21.9682 21.3414 22.1025C20.9089 22.2368 20.8122 23.1637 21.1256 24.1729Z" fill="#FECACA"/>
<path d="M29.889 28.7525V32.8526C25.3333 31.0304 23.4199 26.4746 23.4199 26.4746C25.9711 29.8459 29.889 28.7525 29.889 28.7525Z" fill="#FCA5A5"/>
<path d="M29.8888 31.2129L29.0688 31.6684H28.5221L25.1509 32.1241L29.8888 43.1488L32.7133 49.8002L32.44 35.9509L29.8888 31.2129Z" fill="#CED6E0"/>
<path d="M29.0687 33.6742C29.0687 33.6742 28.0665 36.681 28.2487 38.7766C28.4309 40.8722 31.62 47.2502 31.62 47.2502L33.26 42.0567L32.3488 35.8609C32.3488 35.7698 30.6176 33.7653 30.6176 33.7653L29.2509 32.9453L29.0687 33.6742Z" fill="#F87171"/>
<path d="M27.6108 32.033C27.6108 32.033 28.522 32.7619 29.1598 33.7642C29.1598 33.7642 29.9798 33.3086 30.7087 33.7642C30.7087 33.7642 30.3442 32.1241 30.0708 31.7596C29.7975 31.3952 29.1597 31.7596 29.1597 31.7596H28.613L27.6108 32.033Z" fill="#F87171"/>
<path d="M23.0551 28.5711C23.0551 28.5711 23.9663 29.3911 25.1507 29.8466C26.4263 30.3022 28.4308 31.76 28.4308 31.76C28.4308 31.76 26.3352 33.7646 26.2441 35.0401C26.1529 36.3157 26.1529 36.3157 26.1529 36.3157L21.8706 30.4844C22.5083 29.8467 22.8728 28.2978 23.0551 28.5711Z" fill="#E8F1FF"/>
<path d="M16.7684 57.9094C17.2239 53.9003 17.4973 50.5292 17.4062 49.9825C17.1329 48.5247 14.855 43.3311 13.8528 39.3221C12.8505 35.222 14.3083 34.1286 14.3083 34.1286C15.5839 32.4886 17.5884 32.853 18.4996 32.5797C19.4108 32.3064 20.6863 31.4863 20.6863 31.4863L24.0576 31.8508C24.0576 31.8508 28.3399 37.1355 29.5244 39.8689C30.7089 42.6023 32.8957 51.6226 32.8957 51.6226C32.8957 51.6226 32.9868 53.6272 33.3512 56.725C33.3512 57.0895 33.4424 57.4539 33.4424 57.9095L16.7684 57.9094Z" fill="#344A5E"/>
<path d="M31.7113 50.6208C31.7113 50.6208 31.9846 52.8076 31.6201 53.9009L35.5381 53.8099L35.0825 49.8008L31.7113 50.6208Z" fill="#E8EAE9"/>
<path d="M32.531 54.8114C32.531 54.8114 32.8043 54.8114 33.2599 54.8114C33.9887 54.8114 35.1733 54.7203 36.2666 54.6292C37.2689 54.6292 38.0889 54.5381 38.2712 54.5381C39.0001 54.5381 42.098 54.0826 42.4625 53.7181C42.8269 53.3536 43.5558 51.8047 43.5558 50.2558C43.5558 48.7068 42.2803 46.7023 42.2803 46.7023C42.2803 46.7023 41.0047 44.6978 40.6402 44.1511C40.2757 43.6955 39.9113 43.331 39.5468 42.8755C39.1823 42.42 39.1823 41.7821 39.1823 41.7821C39.1823 41.7821 39.3645 41.0532 38.909 40.0509C38.4535 39.0487 37.9978 38.3197 37.9978 38.3197C37.9978 38.3197 37.7245 36.4975 36.8133 35.6775C35.9933 34.8574 35.5377 34.8574 35.4466 34.8574C35.5377 34.9486 35.5573 35.2975 35.6485 35.2975C36.1952 36.0264 37.1457 38.5534 37.0547 40.9224C36.9635 42.1069 37.1778 43.4221 36.8133 45.0622C36.8133 45.0622 37.9067 47.5222 38.0889 47.7956C38.2711 48.1601 38.18 48.5245 37.5422 48.7068C37.36 48.7978 36.9044 48.889 36.1755 48.9801C34.8999 49.1623 33.0776 49.4356 32.2576 49.5268C31.9842 49.5268 31.8931 49.6178 31.8931 49.6178C33.1688 51.349 32.531 54.8114 32.531 54.8114Z" fill="#2E4454"/>
<path d="M32.4401 49.799C31.3467 46.8834 29.2511 41.1432 28.1578 39.1386C26.6999 36.4052 24.0576 34.3096 24.0576 34.3096L24.6954 33.4896L23.3287 33.3074C23.3287 33.3074 21.0509 31.4851 20.8687 31.394C20.8687 31.394 21.142 30.9384 21.5065 30.6651C21.871 30.3917 22.2354 29.7539 22.5087 29.7539C22.5087 29.7539 25.6977 31.8495 27.1555 34.0362C28.6134 36.223 30.2534 39.2298 31.2557 42.5099C31.8935 44.6966 32.5312 47.7945 32.8957 49.799H32.4401Z" fill="#415A6B"/>
<path d="M29.8889 30.0273C29.8889 30.0273 29.6155 31.2119 29.0688 31.7585C29.0688 31.7585 29.98 31.7585 30.2534 32.7608C30.5267 33.763 30.5267 33.763 30.5267 33.763C30.5267 33.763 30.5267 32.6696 30.2534 32.1229C30.1622 31.5763 30.3444 30.2096 29.8889 30.0273Z" fill="#E8F1FF"/>
<path d="M32.713 50.0731C32.3485 48.1597 31.7108 45.2441 31.7108 44.424C31.7108 43.2395 31.6196 38.1371 31.4374 36.8616C31.2552 35.4949 30.2529 31.9414 30.2529 31.9414C30.2529 31.9414 30.7996 33.0348 32.0752 33.6726L31.7107 33.9459C31.7107 33.9459 32.8041 34.3104 33.2596 35.4038C33.6241 36.4972 33.7152 41.0529 33.7152 42.4196C33.7152 43.3307 33.2596 47.7042 33.0773 50.1642H32.7128V50.0731H32.713Z" fill="#415A6B"/>
<path d="M13.9436 39.2306C14.4903 41.4174 15.4014 43.8774 16.1303 45.882C18.4082 48.5244 22.9639 51.2578 23.6928 51.6222C24.4217 51.9867 24.7861 52.0777 25.2417 52.26C25.7884 52.4422 26.7906 52.26 27.3373 52.4422C27.884 52.6244 28.2485 52.3512 28.8862 52.26C29.1595 52.169 31.0729 51.8045 32.9863 51.3488C35.2642 50.8022 37.7243 50.2555 37.7243 50.2555C36.9954 48.3421 34.5353 44.9708 34.5353 44.9708C34.5353 44.9708 32.7131 45.153 31.3464 45.153C30.7085 45.153 30.0708 45.153 29.8885 45.153C29.0685 45.0619 27.0639 44.8797 26.8817 44.7885C26.6995 44.6974 25.6972 45.0619 25.3328 45.2441C24.8773 45.4263 24.695 45.4263 24.5128 44.6062C24.2395 43.7862 23.7839 43.4217 23.5106 42.5106C23.2372 41.6906 22.8727 39.0483 20.8683 35.9504C19.8661 34.4015 18.4993 33.6725 17.406 33.217C16.4037 32.8525 15.1281 33.1259 14.4903 33.9459C14.3991 34.1282 12.9413 35.1305 13.9436 39.2306Z" fill="#415A6B"/>
</svg>
