<svg width="215" height="215" viewBox="0 0 215 215" fill="none" xmlns="http://www.w3.org/2000/svg">
<g clip-path="url(#clip0_6849_41510)">
<path d="M77.3602 40.1164L75.937 41.1504L95.0523 67.4604L96.4755 66.4264L77.3602 40.1164Z" fill="#FFC97B"/>
<path d="M166.945 33.1182L142.77 66.3926L144.193 67.4266L168.368 34.1523L166.945 33.1182Z" fill="#FFA98E"/>
<path d="M80.7363 111.478L30.5796 127.775L31.1232 129.448L81.2799 113.152L80.7363 111.478Z" fill="#73B0F9"/>
<path d="M158.49 111.473L157.946 113.146L189.48 123.392L190.024 121.719L158.49 111.473Z" fill="#7DE681"/>
<path d="M120.497 140.365H118.738V186.469H120.497V140.365Z" fill="#F27A83"/>
<path d="M119.616 141.477C96.6187 141.477 77.9087 122.767 77.9087 99.7697C77.9087 76.7725 96.6187 58.0625 119.616 58.0625C142.613 58.0625 161.323 76.7725 161.323 99.7697C161.323 122.767 142.613 141.477 119.616 141.477ZM119.616 60.2598C97.8307 60.2598 80.1077 77.9828 80.1077 99.768C80.1077 121.553 97.8307 139.276 119.616 139.276C141.401 139.276 159.124 121.553 159.124 99.768C159.124 77.9828 141.401 60.2598 119.616 60.2598Z" fill="#B3CCFF"/>
<path d="M143.821 123.973C157.188 110.606 157.188 88.9332 143.821 75.566C130.453 62.1987 108.781 62.1987 95.4135 75.566C82.0463 88.9332 82.0463 110.606 95.4135 123.973C108.781 137.34 130.453 137.34 143.821 123.973Z" fill="white"/>
<path d="M189.917 141.095C179.79 141.095 171.551 132.856 171.551 122.731C171.551 112.605 179.79 104.365 189.917 104.365C200.044 104.365 208.281 112.604 208.281 122.731C208.281 132.858 200.042 141.095 189.917 141.095Z" fill="white"/>
<path d="M190.363 111.607C190.107 111.607 189.9 111.815 189.9 112.07V122.254C189.9 122.509 190.107 122.716 190.363 122.716H200.546C200.802 122.716 201.009 122.509 201.009 122.254C201.002 116.377 196.24 111.614 190.363 111.607Z" fill="#FBBF24"/>
<path d="M195.385 131.206L189.011 123.011V112.999C189.011 112.744 188.804 112.537 188.549 112.537C183.197 112.537 178.843 117.307 178.843 123.169C178.849 129.039 183.605 133.795 189.473 133.802C191.604 133.967 193.711 133.262 195.313 131.847C195.506 131.688 195.538 131.404 195.385 131.206Z" fill="#5676FF"/>
<path d="M200.547 123.645H191.293C191.038 123.645 190.83 123.852 190.831 124.107C190.831 124.213 190.867 124.315 190.933 124.398L196.948 131.842C197.029 131.942 197.148 132.004 197.276 132.013H197.308C197.425 132.013 197.538 131.969 197.624 131.889C199.779 129.874 201.005 127.057 201.01 124.107C201.01 123.852 200.803 123.645 200.547 123.645Z" fill="#4ADE80"/>
<path d="M119.45 127.376C104.216 127.376 91.8198 114.982 91.8198 99.7456C91.8198 84.5096 104.214 72.1152 119.45 72.1152C134.686 72.1152 147.081 84.5096 147.081 99.7456C147.081 114.982 134.686 127.376 119.45 127.376Z" fill="#2F45FF"/>
<g clip-path="url(#clip1_6849_41510)">
<path d="M123.135 104.504C122.246 101.544 119.448 99.6529 116.473 99.8705C116.096 99.898 115.716 99.958 115.337 100.056C111.867 100.949 109.769 104.521 110.651 108.036C110.726 108.336 110.822 108.624 110.934 108.903C110.992 108.897 111.051 108.887 111.109 108.883C113.889 108.679 116.515 110.319 117.572 112.952C117.891 112.92 118.212 112.863 118.531 112.781C122.001 111.888 124.099 108.315 123.217 104.802C123.192 104.702 123.164 104.602 123.135 104.504Z" fill="white"/>
<path d="M118.7 97.4548C118.627 97.5322 118.669 97.6603 118.773 97.6826C120.887 98.1356 122.722 99.3514 123.98 101.033C124.047 101.122 124.188 101.1 124.222 100.994L128.589 87.2904C128.625 87.177 128.483 87.093 128.401 87.1796L118.7 97.4548Z" fill="white"/>
</g>
<path d="M30.5264 152.43C17.399 152.43 6.71777 141.748 6.71777 128.621C6.71777 115.494 17.3973 104.812 30.5264 104.812C43.6554 104.812 54.3349 115.492 54.3349 128.621C54.3349 141.75 43.6537 152.43 30.5264 152.43Z" fill="white"/>
<path d="M30.4601 142.353C38.0824 142.353 44.2616 136.174 44.2616 128.551C44.2616 120.929 38.0824 114.75 30.4601 114.75C22.8378 114.75 16.6587 120.929 16.6587 128.551C16.6587 136.174 22.8378 142.353 30.4601 142.353Z" fill="#B3CCFF"/>
<path d="M30.4603 140.45C37.0312 140.45 42.3581 135.123 42.3581 128.552C42.3581 121.981 37.0312 116.654 30.4603 116.654C23.8893 116.654 18.5625 121.981 18.5625 128.552C18.5625 135.123 23.8893 140.45 30.4603 140.45Z" fill="#5676FF"/>
<path d="M30.1114 133.656C29.6872 133.583 29.2946 133.385 28.9841 133.087C28.6737 132.789 28.4596 132.404 28.3696 131.983C28.3377 131.833 28.3222 131.68 28.3234 131.527C28.3302 131.349 28.2788 131.173 28.177 131.026C28.0753 130.88 27.9286 130.77 27.7592 130.714L27.6557 130.682C27.538 130.646 27.4136 130.637 27.2919 130.656C27.1702 130.675 27.0546 130.722 26.9539 130.793C26.8533 130.864 26.7703 130.957 26.7115 131.066C26.6526 131.174 26.6194 131.294 26.6145 131.417V131.545C26.6146 132.418 26.9109 133.265 27.4549 133.947C27.9988 134.629 28.7582 135.107 29.6088 135.301V136.251C29.6088 136.478 29.6989 136.695 29.8594 136.856C30.0198 137.016 30.2374 137.106 30.4643 137.106C30.6912 137.106 30.9088 137.016 31.0692 136.856C31.2297 136.695 31.3198 136.478 31.3198 136.251V135.301C32.244 135.093 33.059 134.551 33.6088 133.78C34.1586 133.008 34.4047 132.061 34.3 131.12C34.1952 130.178 33.747 129.308 33.0411 128.677C32.3351 128.045 31.421 127.696 30.4737 127.696C30.0929 127.71 29.7156 127.619 29.3834 127.432C29.0512 127.245 28.7772 126.97 28.5916 126.637C28.4363 126.368 28.3412 126.069 28.3129 125.759C28.2846 125.45 28.3238 125.138 28.4276 124.845C28.5315 124.552 28.6976 124.285 28.9146 124.063C29.1315 123.841 29.3941 123.668 29.6843 123.557C29.9744 123.445 30.2852 123.399 30.5953 123.419C30.9053 123.44 31.2072 123.527 31.4801 123.676C31.753 123.824 31.9905 124.03 32.1762 124.279C32.3619 124.528 32.4913 124.815 32.5556 125.119C32.5872 125.269 32.6024 125.422 32.6009 125.575C32.5942 125.754 32.6456 125.929 32.7474 126.076C32.8491 126.222 32.9957 126.332 33.1651 126.388L33.2682 126.42C33.386 126.457 33.5108 126.467 33.6328 126.448C33.7548 126.429 33.8708 126.382 33.9717 126.311C34.0727 126.24 34.1559 126.146 34.2149 126.038C34.2739 125.929 34.3071 125.809 34.3119 125.685C34.3119 125.642 34.3141 125.6 34.3141 125.557C34.314 124.684 34.0177 123.838 33.4737 123.155C32.9298 122.473 32.1704 121.996 31.3198 121.801V120.852C31.3198 120.625 31.2297 120.407 31.0692 120.247C30.9088 120.086 30.6912 119.996 30.4643 119.996C30.2374 119.996 30.0198 120.086 29.8594 120.247C29.6989 120.407 29.6088 120.625 29.6088 120.852V121.801C28.685 122.009 27.8702 122.551 27.3204 123.322C26.7706 124.093 26.5242 125.039 26.6284 125.98C26.7325 126.922 27.18 127.791 27.8851 128.424C28.5903 129.056 29.5036 129.406 30.4506 129.407C30.8314 129.392 31.2088 129.484 31.5409 129.67C31.8731 129.857 32.1471 130.132 32.3327 130.465C32.5318 130.819 32.6272 131.221 32.6078 131.627C32.5884 132.032 32.4552 132.424 32.2232 132.758C31.9913 133.091 31.6702 133.352 31.2966 133.511C30.9231 133.67 30.5123 133.72 30.1114 133.656Z" fill="white"/>
<path d="M35.2049 134.061C35.0425 134.196 34.9358 134.387 34.9051 134.597C34.8744 134.806 34.9219 135.02 35.0385 135.197C35.1042 135.296 35.1901 135.381 35.2908 135.446C35.3914 135.51 35.5045 135.553 35.6226 135.571C35.7408 135.589 35.8614 135.582 35.9766 135.55C36.0918 135.518 36.1991 135.462 36.2914 135.387C37.281 134.544 38.0758 133.496 38.6208 132.316C39.1658 131.136 39.4481 129.852 39.4481 128.552C39.4481 127.252 39.1658 125.968 38.6208 124.788C38.0758 123.608 37.281 122.56 36.2914 121.717C36.1991 121.641 36.0918 121.586 35.9766 121.554C35.8614 121.522 35.7408 121.515 35.6226 121.533C35.5045 121.551 35.3914 121.594 35.2908 121.658C35.1901 121.722 35.1042 121.807 35.0385 121.907C34.9219 122.084 34.8744 122.297 34.9051 122.507C34.9358 122.716 35.0425 122.907 35.2049 123.043C35.9992 123.725 36.6367 124.57 37.0738 125.521C37.5109 126.471 37.7372 127.505 37.7372 128.552C37.7372 129.598 37.5109 130.632 37.0738 131.583C36.6367 132.534 35.9992 133.379 35.2049 134.061Z" fill="white"/>
<path d="M24.6377 135.387C24.73 135.462 24.8372 135.518 24.9525 135.55C25.0677 135.582 25.1883 135.589 25.3064 135.571C25.4246 135.553 25.5377 135.51 25.6383 135.446C25.7389 135.381 25.8249 135.296 25.8906 135.197C26.0072 135.02 26.0546 134.806 26.0239 134.597C25.9933 134.387 25.8866 134.196 25.7242 134.061C24.9299 133.379 24.2923 132.534 23.8553 131.583C23.4182 130.632 23.1919 129.598 23.1919 128.552C23.1919 127.505 23.4182 126.471 23.8553 125.521C24.2923 124.57 24.9299 123.725 25.7242 123.043C25.8866 122.907 25.9933 122.716 26.0239 122.507C26.0546 122.297 26.0072 122.084 25.8906 121.907C25.8249 121.807 25.7389 121.722 25.6383 121.658C25.5377 121.594 25.4246 121.551 25.3064 121.533C25.1883 121.515 25.0677 121.522 24.9525 121.554C24.8372 121.586 24.73 121.641 24.6377 121.717C23.6481 122.56 22.8533 123.608 22.3083 124.788C21.7632 125.968 21.481 127.252 21.481 128.552C21.481 129.852 21.7632 131.136 22.3083 132.316C22.8533 133.496 23.6481 134.544 24.6377 135.387Z" fill="white"/>
<path d="M119.577 208.248C107.484 208.248 97.645 198.411 97.645 186.317C97.645 174.222 107.484 164.385 119.577 164.385C131.669 164.385 141.509 174.224 141.509 186.317C141.509 198.409 131.669 208.248 119.577 208.248Z" fill="white"/>
<path d="M124.965 173.344H130.34V184.542H124.965V173.344Z" fill="#E6AF89"/>
<path d="M131.234 176.928C131.234 176.69 131.139 176.462 130.971 176.294C130.803 176.126 130.575 176.032 130.338 176.032H124.963V174.24H123.867C123.421 174.24 122.994 174.417 122.679 174.732L121.379 176.032H106.598V181.407H120.036L122.413 182.596C123.206 182.992 124.081 183.199 124.967 183.199H130.338C130.575 183.199 130.803 183.104 130.971 182.936C131.139 182.768 131.234 182.54 131.234 182.303C131.234 182.065 131.139 181.837 130.971 181.669C130.803 181.501 130.575 181.407 130.338 181.407C130.575 181.407 130.803 181.313 130.971 181.145C131.139 180.977 131.234 180.749 131.234 180.511C131.234 180.273 131.139 180.046 130.971 179.878C130.803 179.71 130.575 179.615 130.338 179.615C130.575 179.615 130.803 179.521 130.971 179.353C131.139 179.185 131.234 178.957 131.234 178.719C131.234 178.482 131.139 178.254 130.971 178.086C130.803 177.918 130.575 177.824 130.338 177.824C130.575 177.824 130.803 177.729 130.971 177.561C131.139 177.393 131.234 177.165 131.234 176.928Z" fill="#FDC9A6"/>
<path d="M130.338 181.407C130.456 181.407 130.572 181.43 130.681 181.475C130.79 181.52 130.889 181.586 130.972 181.669C131.027 181.724 131.075 181.787 131.114 181.855H127.651C127.532 181.855 127.418 181.808 127.334 181.724C127.25 181.64 127.203 181.526 127.203 181.407C127.203 181.288 127.25 181.174 127.334 181.09C127.418 181.006 127.532 180.959 127.651 180.959H131.114C131.035 181.095 130.922 181.208 130.786 181.287C130.65 181.366 130.495 181.407 130.338 181.407Z" fill="#FDC9A6"/>
<path d="M130.338 179.616C130.456 179.616 130.572 179.639 130.681 179.684C130.79 179.729 130.889 179.795 130.972 179.878C131.027 179.933 131.075 179.996 131.114 180.064H127.651C127.532 180.064 127.418 180.017 127.334 179.933C127.25 179.849 127.203 179.735 127.203 179.616C127.203 179.497 127.25 179.383 127.334 179.299C127.418 179.215 127.532 179.168 127.651 179.168H131.114C131.035 179.304 130.922 179.417 130.786 179.496C130.65 179.575 130.495 179.616 130.338 179.616Z" fill="#FDC9A6"/>
<path d="M130.972 178.085C131.027 178.14 131.075 178.203 131.114 178.271H127.651C127.532 178.271 127.418 178.224 127.334 178.14C127.25 178.056 127.203 177.942 127.203 177.823C127.203 177.704 127.25 177.59 127.334 177.506C127.418 177.422 127.532 177.375 127.651 177.375H131.114C131.035 177.511 130.922 177.624 130.786 177.703C130.65 177.782 130.495 177.823 130.338 177.823C130.456 177.823 130.572 177.846 130.681 177.891C130.79 177.936 130.889 178.002 130.972 178.085Z" fill="#FDC9A6"/>
<path d="M127.204 177.823C127.204 177.704 127.251 177.59 127.335 177.506C127.419 177.422 127.533 177.375 127.652 177.375H131.115C131.036 177.511 130.923 177.624 130.787 177.703C130.651 177.782 130.496 177.823 130.339 177.823H127.204Z" fill="#F6BB92"/>
<path d="M114.215 175.135C114.452 175.135 114.68 175.229 114.848 175.397C115.016 175.565 115.111 175.793 115.111 176.031V181.406H116.902V182.502C116.902 182.947 116.725 183.374 116.41 183.689L115.111 184.989V197.979H109.736V186.333L108.547 183.955C108.15 183.162 107.944 182.288 107.944 181.401V176.031C107.944 175.793 108.038 175.565 108.206 175.397C108.374 175.229 108.602 175.135 108.84 175.135C109.077 175.135 109.305 175.229 109.473 175.397C109.641 175.565 109.736 175.793 109.736 176.031C109.736 175.793 109.83 175.565 109.998 175.397C110.166 175.229 110.394 175.135 110.631 175.135C110.869 175.135 111.097 175.229 111.265 175.397C111.433 175.565 111.527 175.793 111.527 176.031C111.527 175.793 111.622 175.565 111.79 175.397C111.958 175.229 112.185 175.135 112.423 175.135C112.661 175.135 112.888 175.229 113.056 175.397C113.224 175.565 113.319 175.793 113.319 176.031C113.319 175.793 113.413 175.565 113.581 175.397C113.749 175.229 113.977 175.135 114.215 175.135Z" fill="#F6BB92"/>
<path fill-rule="evenodd" clip-rule="evenodd" d="M120.257 188.572C120.212 188.572 120.168 188.554 120.133 188.516C119.753 188.113 119.373 187.775 119.011 187.447C118.083 186.621 117.35 185.964 117.35 184.839C117.35 183.929 118.039 183.197 118.896 183.197C119.567 183.197 119.956 183.535 120.257 184.079C120.566 183.535 120.946 183.197 121.626 183.197C122.474 183.197 123.173 183.929 123.173 184.839C123.173 185.964 122.439 186.621 121.511 187.447C121.14 187.775 120.769 188.113 120.38 188.516C120.354 188.554 120.31 188.572 120.257 188.572Z" fill="#EF4444"/>
<path d="M127.204 179.614C127.204 179.495 127.251 179.381 127.335 179.297C127.419 179.213 127.533 179.166 127.652 179.166H131.115C131.036 179.302 130.923 179.415 130.787 179.494C130.651 179.573 130.496 179.614 130.339 179.614H127.204Z" fill="#F6BB92"/>
<path d="M127.204 181.407C127.204 181.288 127.251 181.174 127.335 181.09C127.419 181.006 127.533 180.959 127.652 180.959H131.115C131.036 181.095 130.923 181.208 130.787 181.287C130.651 181.366 130.496 181.407 130.339 181.407H127.204Z" fill="#F6BB92"/>
<path d="M113.318 179.167C113.437 179.167 113.551 179.12 113.635 179.036C113.719 178.952 113.766 178.838 113.766 178.719V175.256C113.63 175.334 113.516 175.448 113.438 175.584C113.359 175.72 113.318 175.875 113.318 176.032V179.167Z" fill="#E6AF89"/>
<path d="M111.527 179.167C111.646 179.167 111.76 179.12 111.844 179.036C111.928 178.952 111.975 178.838 111.975 178.719V175.256C111.839 175.334 111.726 175.448 111.647 175.584C111.569 175.72 111.527 175.875 111.527 176.032V179.167Z" fill="#E6AF89"/>
<path d="M109.737 179.167C109.856 179.167 109.97 179.12 110.054 179.036C110.138 178.952 110.185 178.838 110.185 178.719V175.256C110.049 175.334 109.936 175.448 109.857 175.584C109.779 175.72 109.737 175.875 109.737 176.032V179.167Z" fill="#E6AF89"/>
<path d="M108.841 194.396C108.841 194.633 108.935 194.861 109.103 195.029C109.271 195.197 109.499 195.292 109.737 195.292H115.112V197.083H116.208C116.653 197.083 117.08 196.906 117.395 196.591L118.695 195.292H132.58V189.917H120.039L117.661 188.728C116.868 188.331 115.994 188.125 115.107 188.125H109.737C109.499 188.125 109.271 188.219 109.103 188.387C108.935 188.555 108.841 188.783 108.841 189.021C108.841 189.258 108.935 189.486 109.103 189.654C109.271 189.822 109.499 189.917 109.737 189.917C109.499 189.917 109.271 190.011 109.103 190.179C108.935 190.347 108.841 190.575 108.841 190.812C108.841 191.05 108.935 191.278 109.103 191.446C109.271 191.614 109.499 191.708 109.737 191.708C109.499 191.708 109.271 191.803 109.103 191.971C108.935 192.139 108.841 192.367 108.841 192.604C108.841 192.842 108.935 193.07 109.103 193.238C109.271 193.406 109.499 193.5 109.737 193.5C109.499 193.5 109.271 193.594 109.103 193.762C108.935 193.93 108.841 194.158 108.841 194.396Z" fill="#FDC9A6"/>
<path d="M124.966 184.094V184.99L123.778 187.367C123.381 188.16 123.175 189.034 123.175 189.921V195.292C123.175 195.529 123.269 195.757 123.437 195.925C123.605 196.093 123.833 196.188 124.071 196.188C124.308 196.188 124.536 196.093 124.704 195.925C124.872 195.757 124.966 195.529 124.966 195.292C124.966 195.529 125.061 195.757 125.229 195.925C125.397 196.093 125.625 196.188 125.862 196.188C126.1 196.188 126.328 196.093 126.496 195.925C126.664 195.757 126.758 195.529 126.758 195.292C126.758 195.529 126.853 195.757 127.021 195.925C127.189 196.093 127.416 196.188 127.654 196.188C127.892 196.188 128.119 196.093 128.287 195.925C128.455 195.757 128.55 195.529 128.55 195.292C128.55 195.529 128.644 195.757 128.812 195.925C128.98 196.093 129.208 196.188 129.446 196.188C129.683 196.188 129.911 196.093 130.079 195.925C130.247 195.757 130.341 195.529 130.341 195.292V189.917H132.133V188.821C132.133 188.375 131.956 187.948 131.641 187.633L130.341 186.333V184.094H124.966Z" fill="#E6AF89"/>
<path d="M128.548 192.156C128.667 192.156 128.781 192.203 128.865 192.287C128.949 192.371 128.996 192.485 128.996 192.604V196.068C128.86 195.989 128.747 195.876 128.668 195.74C128.59 195.603 128.548 195.449 128.548 195.292V192.156Z" fill="#C99978"/>
<path d="M126.755 192.156C126.874 192.156 126.988 192.203 127.072 192.287C127.156 192.371 127.203 192.485 127.203 192.604V196.068C127.067 195.989 126.954 195.876 126.875 195.74C126.797 195.603 126.755 195.449 126.755 195.292V192.156Z" fill="#C99978"/>
<path d="M124.965 192.156C125.084 192.156 125.198 192.203 125.282 192.287C125.366 192.371 125.413 192.485 125.413 192.604V196.068C125.277 195.989 125.163 195.876 125.085 195.74C125.006 195.603 124.965 195.449 124.965 195.292V192.156Z" fill="#C99978"/>
<path d="M112.871 193.5C112.871 193.619 112.824 193.733 112.74 193.817C112.656 193.901 112.542 193.948 112.423 193.948H108.96C109.039 193.812 109.152 193.699 109.288 193.62C109.424 193.541 109.579 193.5 109.736 193.5H112.871Z" fill="#E6AF89"/>
<path d="M112.871 191.709C112.871 191.828 112.824 191.942 112.74 192.026C112.656 192.11 112.542 192.157 112.423 192.157H108.96C109.039 192.021 109.152 191.908 109.288 191.829C109.424 191.75 109.579 191.709 109.736 191.709H112.871Z" fill="#E6AF89"/>
<path d="M112.871 189.916C112.871 190.035 112.824 190.149 112.74 190.233C112.656 190.317 112.542 190.364 112.423 190.364H108.96C109.039 190.228 109.152 190.115 109.288 190.036C109.424 189.957 109.579 189.916 109.736 189.916H112.871Z" fill="#E6AF89"/>
<path d="M167.69 60.8067C152.778 60.8067 140.645 48.6748 140.645 33.7627C140.645 18.8506 152.776 6.71875 167.69 6.71875C182.604 6.71875 194.734 18.8506 194.734 33.7627C194.734 48.6748 182.602 60.8067 167.69 60.8067Z" fill="white"/>
<path fill-rule="evenodd" clip-rule="evenodd" d="M168.008 39.479C167.666 39.4732 167.335 39.4595 167.015 39.4385C166.876 39.4294 166.756 39.5346 166.747 39.6732C166.738 39.8117 166.843 39.9317 166.982 39.9407C167.31 39.9622 167.649 39.9762 168 39.9822C168.139 39.9846 168.253 39.8738 168.256 39.7349C168.258 39.596 168.147 39.4814 168.008 39.479ZM169.996 39.4232C169.677 39.4478 169.346 39.465 169.004 39.4743C168.865 39.478 168.755 39.5937 168.759 39.7326C168.763 39.8714 168.879 39.9811 169.017 39.9773C169.368 39.9678 169.707 39.9503 170.035 39.925C170.174 39.9143 170.277 39.7932 170.267 39.6547C170.256 39.5163 170.135 39.4125 169.996 39.4232ZM166.027 39.3465C165.871 39.3274 165.718 39.3064 165.568 39.2834C165.431 39.2625 165.303 39.357 165.282 39.4942C165.261 39.6315 165.355 39.76 165.492 39.7809C165.647 39.8046 165.805 39.8263 165.966 39.846C166.104 39.8629 166.229 39.7647 166.246 39.6268C166.263 39.489 166.165 39.3634 166.027 39.3465ZM171.228 39.2834C171.147 39.2958 171.065 39.3076 170.983 39.3188C170.845 39.3376 170.748 39.4646 170.767 39.6022C170.786 39.7397 170.913 39.8362 171.051 39.8175C171.136 39.8059 171.22 39.7937 171.304 39.7809C171.441 39.76 171.535 39.6315 171.514 39.4942C171.493 39.357 171.365 39.2625 171.228 39.2834ZM177.057 32.8531C177.085 32.9914 177.108 33.1268 177.129 33.2587C177.149 33.396 177.278 33.4906 177.415 33.4698C177.552 33.4491 177.647 33.3207 177.626 33.1833C177.605 33.0436 177.58 32.9002 177.55 32.7538C177.523 32.6177 177.39 32.5294 177.254 32.5568C177.118 32.5842 177.029 32.717 177.057 32.8531ZM159.667 33.2587C159.679 33.1796 159.693 33.0993 159.708 33.0178C159.732 32.8812 159.642 32.7501 159.505 32.7253C159.368 32.7004 159.237 32.7913 159.212 32.9279C159.197 33.0142 159.183 33.0995 159.17 33.1833C159.149 33.3207 159.244 33.4491 159.381 33.4698C159.518 33.4906 159.647 33.396 159.667 33.2587ZM159.933 32.0633C160.021 31.7591 160.125 31.4467 160.247 31.1304C160.297 31.0008 160.232 30.855 160.103 30.8052C159.973 30.7553 159.827 30.8199 159.777 30.9495C159.65 31.2799 159.541 31.6062 159.449 31.924C159.411 32.0575 159.488 32.197 159.622 32.2354C159.755 32.2739 159.895 32.1967 159.933 32.0633ZM176.487 30.9733C176.613 31.2872 176.722 31.5981 176.815 31.9017C176.856 32.0345 176.996 32.1095 177.129 32.0689C177.262 32.0285 177.337 31.8878 177.296 31.7549C177.2 31.438 177.086 31.1134 176.954 30.7857C176.902 30.6568 176.756 30.5941 176.627 30.646C176.498 30.6978 176.435 30.8444 176.487 30.9733ZM160.639 30.2265C160.78 29.9357 160.935 29.6452 161.105 29.3584C161.176 29.2388 161.136 29.0844 161.017 29.0137C160.897 28.9429 160.743 28.9824 160.672 29.1019C160.495 29.401 160.333 29.7039 160.186 30.0072C160.126 30.1323 160.178 30.2829 160.303 30.3433C160.428 30.4038 160.579 30.3515 160.639 30.2265ZM175.604 29.2138C175.778 29.4978 175.937 29.786 176.082 30.0749C176.144 30.1991 176.296 30.2493 176.42 30.187C176.544 30.1248 176.594 29.9734 176.532 29.8493C176.381 29.5478 176.215 29.2473 176.033 28.951C175.961 28.8325 175.806 28.7953 175.687 28.8677C175.569 28.9403 175.531 29.0953 175.604 29.2138ZM161.643 28.5344C161.832 28.2703 162.036 28.0127 162.253 27.7641C162.344 27.6595 162.333 27.5004 162.228 27.4091C162.124 27.3177 161.965 27.3286 161.873 27.4332C161.646 27.6938 161.433 27.964 161.234 28.2407C161.153 28.3536 161.179 28.5109 161.292 28.5919C161.404 28.6729 161.562 28.6472 161.643 28.5344ZM174.432 27.6384C174.653 27.883 174.86 28.1372 175.054 28.3982C175.137 28.5097 175.294 28.533 175.406 28.4503C175.517 28.3674 175.541 28.2097 175.458 28.0982C175.255 27.8244 175.037 27.5577 174.805 27.301C174.712 27.1979 174.553 27.1899 174.45 27.2829C174.347 27.376 174.339 27.5353 174.432 27.6384ZM162.934 27.0594C163.034 26.966 163.137 26.8744 163.242 26.7853C163.348 26.6954 163.361 26.5364 163.271 26.4305C163.181 26.3247 163.022 26.3117 162.916 26.4015C162.805 26.4959 162.697 26.5924 162.591 26.6912C162.489 26.7859 162.483 26.9452 162.578 27.0468C162.673 27.1485 162.832 27.154 162.934 27.0594ZM173.554 26.7853C173.616 26.838 173.678 26.8918 173.738 26.9462C173.842 27.0389 174.001 27.0303 174.094 26.9269C174.187 26.8236 174.178 26.6644 174.075 26.5716C174.011 26.5141 173.946 26.4574 173.88 26.4015C173.774 26.3117 173.615 26.3247 173.525 26.4305C173.435 26.5364 173.448 26.6954 173.554 26.7853Z" fill="#45454D"/>
<path d="M159.94 44.716C163.19 44.716 165.825 42.081 165.825 38.8306C165.825 35.5803 163.19 32.9453 159.94 32.9453C156.689 32.9453 154.054 35.5803 154.054 38.8306C154.054 42.081 156.689 44.716 159.94 44.716Z" fill="#E8F1FF"/>
<path d="M176.856 44.716C180.106 44.716 182.741 42.081 182.741 38.8306C182.741 35.5803 180.106 32.9453 176.856 32.9453C173.605 32.9453 170.97 35.5803 170.97 38.8306C170.97 42.081 173.605 44.716 176.856 44.716Z" fill="#E8F1FF"/>
<path d="M168.398 30.6183C171.648 30.6183 174.283 27.9834 174.283 24.733C174.283 21.4826 171.648 18.8477 168.398 18.8477C165.147 18.8477 162.512 21.4826 162.512 24.733C162.512 27.9834 165.147 30.6183 168.398 30.6183Z" fill="#E8F1FF"/>
<path fill-rule="evenodd" clip-rule="evenodd" d="M155.509 42.647C155.516 42.696 155.538 42.7418 155.571 42.7785C156.649 43.9689 158.206 44.7172 159.936 44.7172C161.665 44.7172 163.22 43.9703 164.298 42.7816C164.331 42.745 164.352 42.6994 164.36 42.6506L164.448 42.0715C164.664 40.6599 163.715 39.3338 162.309 39.082C162.246 39.0704 162.182 39.0592 162.118 39.0484C162.012 39.0307 161.907 39.0818 161.855 39.1757C161.484 39.8549 160.762 40.3159 159.934 40.3159C159.107 40.3159 158.386 39.8567 158.014 39.1797C157.962 39.0859 157.857 39.035 157.751 39.053C157.686 39.0641 157.622 39.0756 157.557 39.0877C156.155 39.3398 155.209 40.663 155.423 42.0715C155.451 42.2581 155.48 42.4515 155.509 42.647Z" fill="#5676FF"/>
<path fill-rule="evenodd" clip-rule="evenodd" d="M172.426 42.647C172.433 42.696 172.455 42.7418 172.488 42.7785C173.565 43.9689 175.122 44.7172 176.852 44.7172C178.581 44.7172 180.137 43.9703 181.214 42.7816C181.247 42.745 181.269 42.6994 181.276 42.6506L181.365 42.0715C181.58 40.6599 180.631 39.3338 179.226 39.082C179.163 39.0704 179.098 39.0592 179.034 39.0484C178.929 39.0307 178.823 39.0818 178.772 39.1757C178.4 39.8549 177.679 40.3159 176.85 40.3159C176.023 40.3159 175.303 39.8567 174.93 39.1797C174.879 39.0859 174.773 39.035 174.667 39.053C174.603 39.0641 174.538 39.0756 174.474 39.0877C173.071 39.3398 172.125 40.663 172.34 42.0715C172.368 42.2581 172.396 42.4515 172.426 42.647Z" fill="#5676FF"/>
<path fill-rule="evenodd" clip-rule="evenodd" d="M163.968 28.5494C163.975 28.5984 163.997 28.6442 164.03 28.6809C165.107 29.8712 166.664 30.6195 168.394 30.6195C170.123 30.6195 171.679 29.8727 172.756 28.6839C172.789 28.6473 172.811 28.6018 172.818 28.553L172.907 27.9738C173.122 26.5623 172.173 25.2361 170.768 24.9843C170.705 24.9727 170.64 24.9615 170.576 24.9508C170.471 24.933 170.366 24.9841 170.314 25.0781C169.942 25.7571 169.22 26.2183 168.392 26.2183C167.565 26.2183 166.845 25.7591 166.472 25.0821C166.421 24.9882 166.315 24.9374 166.21 24.9553C166.145 24.9663 166.08 24.9779 166.016 24.99C164.613 25.2421 163.667 26.5653 163.882 27.9738C163.91 28.1604 163.938 28.3538 163.968 28.5494Z" fill="#5676FF"/>
<path d="M159.936 40.8197C161.424 40.8197 162.629 39.614 162.629 38.1267C162.629 36.6393 161.424 35.4336 159.936 35.4336C158.449 35.4336 157.243 36.6393 157.243 38.1267C157.243 39.614 158.449 40.8197 159.936 40.8197Z" fill="#FFBEAA"/>
<path d="M176.852 40.8197C178.34 40.8197 179.545 39.614 179.545 38.1267C179.545 36.6393 178.34 35.4336 176.852 35.4336C175.365 35.4336 174.159 36.6393 174.159 38.1267C174.159 39.614 175.365 40.8197 176.852 40.8197Z" fill="#FFBEAA"/>
<path d="M168.394 26.722C169.882 26.722 171.087 25.5163 171.087 24.029C171.087 22.5417 169.882 21.3359 168.394 21.3359C166.907 21.3359 165.701 22.5417 165.701 24.029C165.701 25.5163 166.907 26.722 168.394 26.722Z" fill="#FFBEAA"/>
<path d="M163.329 112.314C163.329 115.135 161.042 117.423 158.221 117.423C155.399 117.423 153.112 115.135 153.112 112.314C153.112 109.493 155.399 107.205 158.221 107.205C161.042 107.205 163.329 109.493 163.329 112.314Z" fill="#7DE681"/>
<path d="M160.944 115.033C162.447 113.531 162.447 111.094 160.944 109.592C159.442 108.09 157.006 108.09 155.503 109.592C154.001 111.094 154.001 113.531 155.503 115.033C157.006 116.535 159.442 116.535 160.944 115.033Z" fill="white"/>
<path d="M124.725 140.378C124.725 143.199 122.437 145.487 119.616 145.487C116.795 145.487 114.507 143.199 114.507 140.378C114.507 137.557 116.795 135.27 119.616 135.27C122.437 135.27 124.725 137.557 124.725 140.378Z" fill="#F27A83"/>
<path d="M120.342 144.156C122.428 143.755 123.794 141.738 123.392 139.651C122.99 137.565 120.973 136.199 118.887 136.601C116.8 137.002 115.435 139.02 115.836 141.106C116.238 143.193 118.255 144.558 120.342 144.156Z" fill="white"/>
<path d="M86.1145 112.314C86.1145 115.135 83.8269 117.423 81.0058 117.423C78.1846 117.423 75.897 115.135 75.897 112.314C75.897 109.493 78.1846 107.205 81.0058 107.205C83.8269 107.205 86.1145 109.493 86.1145 112.314Z" fill="#73B0F9"/>
<path d="M81.6282 116.106C83.7256 115.765 85.1498 113.789 84.8094 111.692C84.4689 109.594 82.4927 108.17 80.3953 108.511C78.2979 108.851 76.8736 110.827 77.2141 112.925C77.5546 115.022 79.5308 116.446 81.6282 116.106Z" fill="white"/>
<path d="M100.877 66.9096C100.877 69.7307 98.5896 72.0183 95.7684 72.0183C92.9473 72.0183 90.6597 69.7307 90.6597 66.9096C90.6597 64.0884 92.9473 61.8008 95.7684 61.8008C98.5896 61.8008 100.877 64.0884 100.877 66.9096Z" fill="#FFC97B"/>
<path d="M95.7668 70.7552C97.8916 70.7552 99.6141 69.0327 99.6141 66.9079C99.6141 64.7831 97.8916 63.0605 95.7668 63.0605C93.642 63.0605 91.9194 64.7831 91.9194 66.9079C91.9194 69.0327 93.642 70.7552 95.7668 70.7552Z" fill="white"/>
<path d="M148.592 66.9135C148.592 69.7346 146.304 72.0222 143.483 72.0222C140.662 72.0222 138.375 69.7346 138.375 66.9135C138.375 64.0923 140.662 61.8047 143.483 61.8047C146.304 61.8047 148.592 64.0923 148.592 66.9135Z" fill="#FFA98E"/>
<path d="M147.256 67.6886C147.683 65.6072 146.342 63.5735 144.261 63.1462C142.179 62.719 140.146 64.0599 139.718 66.1414C139.291 68.2228 140.632 70.2565 142.714 70.6838C144.795 71.111 146.829 69.7701 147.256 67.6886Z" fill="white"/>
<path d="M76.6502 61.0631C65.386 61.0631 56.2202 51.899 56.2202 40.6331C56.2202 29.3672 65.3843 20.2031 76.6502 20.2031C87.9161 20.2031 97.0802 29.3672 97.0802 40.6331C97.0802 51.899 87.9144 61.0631 76.6502 61.0631Z" fill="white"/>
<g clip-path="url(#clip2_6849_41510)">
<path d="M71.0126 50.1373H67.9238V46.0067C67.9238 45.7743 68.1122 45.5859 68.3446 45.5859H70.5919C70.8243 45.5859 71.0126 45.7743 71.0126 46.0067L71.0126 50.1373Z" fill="#FCD34D"/>
<path d="M75.7592 50.1369H72.6704V43.7098C72.6704 43.4774 72.8588 43.2891 73.0912 43.2891H75.3384C75.5708 43.2891 75.7592 43.4774 75.7592 43.7098V50.1369Z" fill="#FCAA4D"/>
<path d="M80.5121 50.1385H77.4233V41.4149C77.4233 41.1825 77.6117 40.9941 77.8441 40.9941H80.0914C80.3238 40.9941 80.5122 41.1825 80.5122 41.4149L80.5121 50.1385Z" fill="#86EFAC"/>
<path d="M85.2616 50.1382H82.1729V39.118C82.1729 38.8856 82.3612 38.6973 82.5936 38.6973H84.8409C85.0733 38.6973 85.2617 38.8856 85.2617 39.118L85.2616 50.1382Z" fill="#67E8F9"/>
<path d="M83.5622 34.948L83.1915 31.2559C83.1786 31.1274 83.0541 31.0407 82.9292 31.0733L79.3356 32.0092C79.1617 32.0545 79.121 32.2829 79.2686 32.3855L80.2073 33.0382C80.2073 33.0382 77.7998 37.7333 69.1011 40.4178V40.6524C71.4878 40.6655 77.7269 39.9829 81.6399 34.7247L82.2936 34.4888L83.2327 35.1417C83.3802 35.2443 83.5801 35.1267 83.5622 34.948Z" fill="#EF4444"/>
<path d="M81.917 34.222C81.8234 34.1559 81.6946 34.1773 81.6262 34.2693C77.7131 39.5275 72.693 40.1897 69.2437 40.4293C69.1929 40.4328 69.1464 40.4277 69.104 40.4164L69.1009 40.4174C68.656 40.5577 68.7806 41.2189 69.246 41.1865C72.7316 40.944 78.4853 39.6992 82.2938 34.4882L81.917 34.222Z" fill="#EF4444"/>
<path d="M87.0262 50.4515H66.1574C65.9831 50.4515 65.8418 50.3102 65.8418 50.1359C65.8418 49.9616 65.9831 49.8203 66.1574 49.8203H87.0263C87.2005 49.8203 87.3418 49.9616 87.3418 50.1359C87.3418 50.3102 87.2005 50.4515 87.0262 50.4515Z" fill="#606066"/>
</g>
</g>
<defs>
<clipPath id="clip0_6849_41510">
<rect width="215" height="215" rx="10.75" fill="white"/>
</clipPath>
<clipPath id="clip1_6849_41510">
<rect width="18.2899" height="26.1285" fill="white" transform="translate(110.449 86.8223)"/>
</clipPath>
<clipPath id="clip2_6849_41510">
<rect width="21.5" height="21.5" fill="white" transform="translate(65.8442 30.0098)"/>
</clipPath>
</defs>
</svg>
