<svg width="150" height="40" viewBox="0 0 150 40" fill="none" xmlns="http://www.w3.org/2000/svg">
<g clip-path="url(#clip0_7994_4557)">
<path d="M112.688 12.0446L108.396 16.5471C111.876 17.2123 114.999 19.2145 117.05 22.129L119.073 15.8412L124.171 0L112.688 12.0446Z" fill="white"/>
<path d="M115.462 27.0623C114.083 22.5295 109.745 19.6347 105.133 19.9673C104.548 20.0094 103.96 20.1014 103.372 20.25C97.9911 21.6172 94.7374 27.0886 96.106 32.4694C96.223 32.9282 96.3715 33.3712 96.5451 33.7972C96.6358 33.788 96.7265 33.7722 96.8159 33.7656C101.128 33.454 105.199 35.965 106.837 39.9969C107.332 39.947 107.828 39.8602 108.324 39.7353C113.705 38.3668 116.959 32.8966 115.59 27.5159C115.551 27.3634 115.507 27.2109 115.462 27.061" fill="white"/>
<path d="M13.1909 30.5054C13.1909 32.3051 12.7597 33.667 11.8986 34.5912C11.0363 35.5167 9.85835 35.9795 8.36363 35.9795C7.04506 35.9795 6.00651 35.5995 5.24666 34.8397C4.4868 34.0785 4.10556 32.99 4.10556 31.5702V20.3184H0V31.9883C0 34.3966 0.665199 36.3028 1.9956 37.7095C3.32599 39.1161 5.09416 39.8195 7.29878 39.8195C9.96089 39.8195 11.9236 38.844 13.1909 36.8918V39.3252H17.2965V20.3184H13.1909V30.5054Z" fill="white"/>
<path d="M42.8402 19.8236C40.2044 19.8236 38.2653 20.8253 37.0243 22.8262C35.8583 20.824 34.0599 19.8236 31.6265 19.8236C29.1931 19.8236 27.4066 20.7491 26.1905 22.5987V20.3179H22.085V39.3247H26.1905V28.6802C26.1905 27.0593 26.577 25.8169 27.35 24.9546C28.123 24.0935 29.1419 23.6623 30.4105 23.6623C31.5502 23.6623 32.431 24.0238 33.0529 24.7455C33.6734 25.4673 33.9836 26.4887 33.9836 27.8046V39.3234H38.0892V28.6789C38.0892 27.0317 38.4559 25.7841 39.1908 24.9335C39.9257 24.0843 40.9393 23.661 42.2315 23.661C43.3726 23.661 44.2705 24.0277 44.9305 24.7639C45.5891 25.4988 45.9191 26.5124 45.9191 27.8046V39.3234H50.0246V27.5391C50.0246 25.182 49.3647 23.306 48.0474 21.9125C46.7289 20.519 44.9936 19.8223 42.8389 19.8223" fill="white"/>
<path d="M57.6296 28.2247C57.9083 26.7799 58.5538 25.6401 59.5687 24.804C60.5823 23.9679 61.8496 23.5499 63.3706 23.5499C64.7641 23.5499 65.9486 23.9561 66.924 24.7659C67.8995 25.577 68.5265 26.7299 68.8052 28.2247H57.6296ZM63.4074 19.8242C60.4416 19.8242 58.0345 20.7878 56.1849 22.7138C54.3089 24.6397 53.3716 27.0099 53.3716 29.8232C53.3716 32.6365 54.3221 35.1067 56.223 37.0076C58.1489 38.8836 60.6441 39.8209 63.7124 39.8209C67.4117 39.8209 70.1869 38.4393 72.0379 35.6772L68.6541 33.7001C67.5393 35.271 65.9039 36.0572 63.7505 36.0572C62.1533 36.0572 60.8163 35.6641 59.7396 34.8793C58.6616 34.0944 57.9714 32.9915 57.6678 31.5717H72.7977C72.899 30.938 72.9502 30.3688 72.9502 29.8614C72.9502 27.0744 72.051 24.7041 70.2513 22.7519C68.4516 20.801 66.1707 19.8255 63.4087 19.8255" fill="white"/>
<path d="M88.4009 35.0101C87.5017 35.5293 86.4934 35.7896 85.3786 35.7896C83.7064 35.7896 82.2997 35.2191 81.1586 34.0793C80.0425 32.9145 79.4864 31.4948 79.4864 29.8226C79.4864 28.1504 80.0438 26.7306 81.1586 25.5645C82.2997 24.4234 83.705 23.8542 85.3786 23.8542C86.5196 23.8542 87.5266 24.1145 88.4009 24.6337C89.2751 25.1543 89.9271 25.8695 90.3583 26.7818L93.8934 24.7297C93.1335 23.235 91.9924 22.0439 90.4727 21.1566C88.9517 20.2692 87.2664 19.8262 85.4167 19.8262C82.5521 19.8262 80.1582 20.7898 78.2323 22.7157C76.3313 24.6167 75.3809 26.9869 75.3809 29.8252C75.3809 32.6635 76.3313 34.9824 78.2323 36.9333C80.1582 38.8593 82.5521 39.8229 85.4167 39.8229C87.2414 39.8229 88.9201 39.3785 90.453 38.4925C91.9858 37.6051 93.1585 36.4022 93.9696 34.8812L90.4346 32.8659C89.9784 33.7783 89.3001 34.4947 88.4009 35.014" fill="white"/>
<path d="M123.468 23.5129V20.3197H119.363V39.3265H123.468V29.7468C123.468 27.7959 124.051 26.4011 125.217 25.565C126.408 24.7039 127.776 24.324 129.322 24.4239V19.9766C126.459 19.9766 124.507 21.1545 123.468 23.5116" fill="white"/>
<path d="M147.664 21.9342C146.334 20.5275 144.566 19.8242 142.361 19.8242C139.7 19.8242 137.736 20.7997 136.469 22.7506V20.3185H132.363V39.3253H136.469V29.137C136.469 27.3386 136.9 25.9766 137.761 25.0512C138.622 24.127 139.8 23.6642 141.296 23.6642C142.613 23.6642 143.653 24.0442 144.413 24.8053C145.173 25.5652 145.553 26.655 145.553 28.0748V39.3266H149.658V27.6567C149.658 25.2497 148.993 23.3421 147.663 21.9355" fill="white"/>
</g>
<defs>
<clipPath id="clip0_7994_4557">
<rect width="150" height="40" fill="white"/>
</clipPath>
</defs>
</svg>
